<?xml version="1.0" standalone="no"?><!DOCTYPE svg PUBLIC "-//W3C//DTD SVG 1.1//EN"
        "http://www.w3.org/Graphics/SVG/1.1/DTD/svg11.dtd">
<svg t="1592897068421" class="icon" viewBox="0 0 1024 1024" version="1.1" xmlns="http://www.w3.org/2000/svg" p-id="45995" width="560" height="454"><path d="M58.181818 0h907.636364v1024H58.181818z" fill="#FFFFFF" p-id="45996"></path><path d="M519.447273 305.757091c25.204364 0 56.785455-17.035636 75.636363-39.749818 17.035636-20.596364 29.463273-49.361455 29.463273-78.126546 0-3.909818-0.349091-7.819636-1.070545-11.008-28.043636 1.070545-61.789091 18.827636-82.013091 42.589091-15.988364 18.129455-30.557091 46.545455-30.557091 75.636364 0 4.282182 0.721455 8.541091 1.070545 9.960727 1.792 0.349091 4.631273 0.698182 7.447273 0.698182zM430.661818 735.418182c34.443636 0 49.710545-23.086545 92.695273-23.086546 43.659636 0 53.248 22.365091 91.601454 22.365091 37.632 0 62.836364-34.792727 86.644364-68.887272 26.624-39.051636 37.632-77.405091 38.353455-79.173819-2.490182-0.698182-74.589091-30.184727-74.589091-112.919272 0-71.726545 56.832-104.029091 60.020363-106.519273-37.632-53.992727-94.813091-55.389091-110.429091-55.389091-42.263273 0-76.706909 25.553455-98.350545 25.553455-23.435636 0-54.341818-24.133818-90.903273-24.133819-69.585455 0-140.264727 57.530182-140.264727 166.167273 0 67.490909 26.298182 138.845091 58.577455 185.018182 27.694545 39.051636 51.851636 71.005091 86.644363 71.005091z" fill="#000000" p-id="45997"></path></svg>