<?xml version="1.0" standalone="no"?><!DOCTYPE svg PUBLIC "-//W3C//DTD SVG 1.1//EN"
        "http://www.w3.org/Graphics/SVG/1.1/DTD/svg11.dtd">
<svg t="1592897922298" class="icon" viewBox="0 0 1024 1024" version="1.1" xmlns="http://www.w3.org/2000/svg" p-id="66226" width="560" height="454"><path d="M154.624 981.504h489.472c67.072 0 123.392-55.808 123.392-123.392V334.848c0-60.928-43.008-110.592-100.864-121.856-11.264-1.536-24.064-1.536-36.864 0L154.624 427.52C93.696 488.448 31.232 574.976 31.232 642.048v216.064c0 67.072 54.784 123.392 123.392 123.392z" fill="#E1E1DF" p-id="66227"></path><path d="M735.232 981.504H245.76c-67.072 0-123.392-55.808-123.392-123.392V181.248c0-60.928 43.008-110.592 100.864-121.856 11.264-1.536 24.064-1.536 36.864 0l475.136 60.928c67.072 0 123.392-6.656 123.392 60.928v676.864c-1.536 67.072-55.808 123.392-123.392 123.392z" fill="#4E8DF6" p-id="66228"></path><path d="M537.088 280.576c0 98.304 78.848 177.664 176.128 177.664s176.128-79.36 176.128-177.664c0-98.304-78.848-177.664-176.128-177.664s-176.128 79.36-176.128 177.664z" fill="#4E8DF6" p-id="66229"></path><path d="M552.96 118.784c-84.992 86.528-84.992 225.792 0 311.808s224.256 86.528 310.272 0 84.992-225.792 0-311.808C775.68 30.72 637.952 30.72 552.96 118.784zM821.76 389.12c-64 64-166.4 64-230.4 0s-64-167.936 0-230.4 166.4-64 230.4 0 64 166.4 0 230.4z" fill="#E1E1DF" p-id="66230"></path><path d="M985.088 552.448c8.192 9.728 8.192 24.064-3.072 32.256l-32.256 27.136c-9.728 8.192-24.064 8.192-32.256-3.072l-126.464-150.528c-8.192-9.728-8.192-24.064 3.072-32.256l32.256-27.136c9.728-8.192 24.064-8.192 32.256 3.072l126.464 150.528z" fill="#E1E1DF" p-id="66231"></path><path d="M610.816 205.312c-6.656-4.608-6.656-12.8-3.072-19.456 1.536-1.536 35.328-48.128 96.256-48.128 22.528 0 46.592 6.144 73.728 22.528 6.656 3.072 8.192 11.264 4.608 17.408-3.072 6.656-11.264 8.192-17.408 4.608-22.528-14.336-43.008-18.944-59.392-18.944-41.472 0-68.608 28.672-75.264 36.864 0 1.536-1.536 1.536-1.536 1.536-3.072 3.072-6.656 4.608-11.264 4.608-2.048 0.512-5.12 0.512-6.656-1.024z m204.8-8.192c0 6.656-6.656 11.264-11.264 11.264-6.656 0-11.264-6.656-11.264-11.264 0-6.656 6.656-11.264 11.264-11.264 6.144 0 11.264 5.12 11.264 11.264z" fill="#2166CC" p-id="66232"></path><path d="M269.824 488.448c-17.408 0-30.208-14.336-30.208-30.208V211.456c0-17.408 14.336-30.208 30.208-30.208 17.408 0 30.208 14.336 30.208 30.208v246.272c0 17.92-14.336 30.72-30.208 30.72z" fill="#FFFFFF" p-id="66233"></path></svg>