<?xml version="1.0" standalone="no"?><!DOCTYPE svg PUBLIC "-//W3C//DTD SVG 1.1//EN" "http://www.w3.org/Graphics/SVG/1.1/DTD/svg11.dtd"><svg t="1592895890658" class="icon" viewBox="0 0 1024 1024" version="1.1" xmlns="http://www.w3.org/2000/svg" p-id="1363" width="560" height="454" xmlns:xlink="http://www.w3.org/1999/xlink"><defs><style type="text/css"></style></defs><path d="M992.42 831.78h-33.08V305c0-43.82-35.66-79.46-79.48-79.46H618.52c-1.38-6.26-3.18-12.4-5.42-18.44 0.6-1.06 1.2-2.14 1.76-3.26 13.54-27.02 9.06-61.98-13.36-103.9a9.974 9.974 0 0 0-15.06-3.08c-0.56 0.44-56.82 44.58-145.9 44.58-17.08 0-34.52-1.62-51.8-4.82-2.58-0.48-5.18-0.72-7.74-0.72-26.44 0-49.64 26.22-49.64 56.1 0 10.66 3.04 20.64 8.28 29.12-0.38 1.46-0.72 2.94-1.06 4.42H144.14c-43.82 0-79.48 35.64-79.48 79.46v526.78H31.58c-5.52 0-10 4.48-10 10v43.08a9.96 9.96 0 0 0 5.64 9l71.08 34.48c1.36 0.66 2.86 1 4.36 1h818.68c1.5 0 3-0.34 4.36-1l71.1-34.48a9.98 9.98 0 0 0 5.62-9v-43.08c0-5.52-4.46-10-10-10zM621.96 314.84v-14.58h269.98v488.42h-120.22v-150.9-0.02c0-68.66-51.1-125.58-117.28-134.8 0.12-0.52 0.22-1.04 0.26-1.56 0.22-2.9-0.84-5.76-2.9-7.8l-52.46-52.5c-1.88-1.86-4.42-2.92-7.08-2.92s-5.2 1.04-7.08 2.92l-31.74 31.74-4.48-33.22c43.52-24.62 72.98-71.32 73-124.78z m-194.84 133.76a142.724 142.724 0 0 0 51.44 9.58c18.12 0 35.46-3.42 51.44-9.58l5.66 42.04-57.1 57.08-57.1-57.1 5.66-42.02z m-71.96-133.82v-58.04-0.04c0-6.14 0.46-12.24 1.36-18.24 8.74 5.72 19.18 9.08 30.38 9.08h162.78c0.5 0 1-0.04 1.48-0.12 1.4-0.22 26.68-4.26 46.8-21.92 2.64 10.12 4 20.56 4 31.22v58.06c0 68.04-55.36 123.4-123.4 123.4s-123.4-55.36-123.4-123.4z m145.82 255.36l-8.28-8.28 99.56-99.54 37.2 37.22-131.88 97.92-4.88-4.88 8.3-8.28c1.86-1.88 2.92-4.42 2.92-7.08s-1.06-5.2-2.94-7.08z m-21.2 7.08l-20.24 20.24-131.88-97.92 37.22-37.22 114.9 114.9z m-25.24 41.44c1.78 1.32 3.88 1.98 5.96 1.98 2.58 0 5.14-1 7.08-2.94l10.98-10.98 10.98 10.98c1.94 1.94 4.5 2.94 7.08 2.94 2.08 0 4.18-0.66 5.96-1.98l130.68-97.04h2.32c64.04 0 116.14 52.1 116.14 116.14v150.92H205.4v-150.92c0-64.04 52.1-116.14 116.14-116.14h2.32l130.68 97.04zM381 155.9c1.34 0 2.72 0.12 4.08 0.38 18.5 3.42 37.16 5.16 55.46 5.16 74.66 0 127.46-28.38 148.42-41.96 14.76 31.12 17.48 56.42 8.08 75.28-12.46 25-43.38 31.84-48.24 32.78h-161.9c-19.6 0-35.54-15.96-35.54-35.54 0-18.9 14.12-36.1 29.64-36.1z m27.16 283.72l-4.48 33.22-31.74-31.74a9.976 9.976 0 0 0-7.06-2.92c-2.66 0-5.2 1.04-7.08 2.92l-52.46 52.5a10.016 10.016 0 0 0-2.92 7.8c0.04 0.52 0.14 1.06 0.26 1.56-66.16 9.22-117.28 66.14-117.28 134.8v150.92H132.06V300.26h203.1V314.82c0.02 53.46 29.48 100.16 73 124.8zM84.66 305c0-32.78 26.68-59.46 59.48-59.46H335.6c-0.28 3.72-0.44 7.46-0.44 11.2v23.52H122.06c-5.52 0-10 4.48-10 10v508.42c0 5.52 4.48 10 10 10h779.88c5.54 0 10-4.48 10-10V290.26c0-5.52-4.46-10-10-10H621.96v-23.48-0.04c0-3.76-0.18-7.5-0.46-11.2h258.36c32.8 0 59.48 26.66 59.48 59.46v526.78H84.66V305z m897.76 573.6l-63.38 30.74H104.96L41.58 878.6v-26.82h940.84v26.82z" fill="#040404" p-id="1364"></path><path d="M408.16 439.62l-4.48 33.22-31.74-31.74a9.976 9.976 0 0 0-7.06-2.92c-2.66 0-5.2 1.04-7.08 2.92l-4.34 4.34-18.7 18.7-29.42 29.46a10.016 10.016 0 0 0-2.92 7.8c0.04 0.52 0.14 1.06 0.26 1.56-7.08 0.98-14 2.52-20.7 4.56-55.82 17-96.58 68.94-96.58 130.24v150.92H132.06V300.26h203.1V314.82c0 16.08 2.68 31.56 7.6 46 11.42 33.56 34.96 61.58 65.4 78.8z" fill="#3594BF" p-id="1365"></path><path d="M41.58 851.78v26.82l63.38 30.74h814.08l63.38-30.74v-26.82H41.58z m586.76 38.78H395.66c-5.52 0-10-4.48-10-10s4.48-10 10-10h232.68c5.52 0 10 4.48 10 10s-4.48 10-10 10z" fill="#636368" p-id="1366"></path><path d="M919.04 889.34H633.14c-1.42 0.78-3.06 1.22-4.8 1.22H395.66c-1.74 0-3.38-0.44-4.8-1.22H104.96L41.58 858.6v20l63.38 30.74h814.08l63.38-30.74v-20l-63.38 30.74z" fill="#040404" opacity=".2" p-id="1367"></path><path d="M939.34 305v526.78H84.66V305c0-32.78 26.68-59.46 59.48-59.46H335.6c-0.28 3.72-0.44 7.46-0.44 11.2v23.52H122.06c-5.52 0-10 4.48-10 10v508.42c0 5.52 4.48 10 10 10h779.88c5.54 0 10-4.48 10-10V290.26c0-5.52-4.46-10-10-10H621.96v-23.48-0.04c0-3.76-0.18-7.5-0.46-11.2h258.36c32.8 0 59.48 26.66 59.48 59.46z" fill="#E1E1E5" p-id="1368"></path><path d="M621.96 300.26v14.58c-0.02 34.92-12.6 66.96-33.46 91.84a143.914 143.914 0 0 1-39.54 32.94l4.48 33.22 31.74-31.74c1.88-1.88 4.42-2.92 7.08-2.92s5.2 1.06 7.08 2.92l52.46 52.5a9.93 9.93 0 0 1 2.9 7.8c-0.04 0.52-0.14 1.04-0.26 1.56 16.04 2.24 31.2 7.26 44.96 14.62A136.834 136.834 0 0 1 755.82 574a135.188 135.188 0 0 1 15.9 63.76V788.68h120.22V300.26H621.96z m110 194.46c-7.12 3.72-14.64 2.58-18.98-2.56-2.9-3.44-4-8.24-3.1-13.5l6.74-39.36c0.44-2.5-1.08-7.2-2.9-8.96l-28.6-27.88c-4.82-4.7-6.58-10.5-4.82-15.92 1.76-5.42 6.6-9.08 13.24-10.04l39.54-5.74c2.5-0.38 6.5-3.26 7.62-5.54l17.68-35.82c2.98-6.04 7.96-9.5 13.66-9.5s10.68 3.46 13.64 9.5l17.68 35.82c1.12 2.26 5.1 5.16 7.62 5.54l39.52 5.74c6.66 0.96 11.48 4.62 13.24 10.04 1.76 5.42 0.02 11.22-4.8 15.92l-28.6 27.88c-1.82 1.76-3.34 6.46-2.92 8.96l6.76 39.36c0.9 5.26-0.2 10.06-3.1 13.5-2.6 3.1-6.34 4.8-10.54 4.8-2.76 0-5.6-0.76-8.44-2.24l-35.36-18.6c-0.78-0.4-2.48-0.88-4.72-0.88s-3.92 0.48-4.7 0.88l-35.36 18.6z" fill="#3594BF" p-id="1369"></path><path d="M597.96 225.5c-20.12 17.66-45.4 21.7-46.8 21.92-0.48 0.08-0.98 0.12-1.48 0.12h-162.78c-11.2 0-21.64-3.36-30.38-9.08-0.9 6-1.36 12.1-1.36 18.24v58.08c0 68.04 55.36 123.4 123.4 123.4s123.4-55.36 123.4-123.4v-58.06c0-10.66-1.36-21.1-4-31.22z m-156.96 46.2c11.66 0 21.1 9.44 21.1 21.1 0 11.64-9.44 21.1-21.1 21.1-11.64 0-21.1-9.46-21.1-21.1 0-11.66 9.46-21.1 21.1-21.1z m37.56 133.44c-29.72 0-53.8-24.08-53.8-53.8h107.62c0 29.72-24.1 53.8-53.82 53.8z m37.56-91.24c-11.66 0-21.1-9.46-21.1-21.1 0-11.66 9.44-21.1 21.1-21.1s21.1 9.44 21.1 21.1c0 11.64-9.44 21.1-21.1 21.1z" fill="#F8D3C9" p-id="1370"></path><path d="M380.82 314.78v-58.04-0.04c0-3.16 0.12-6.32 0.36-9.46-9.02-0.92-17.42-4.04-24.66-8.78-0.9 6-1.36 12.1-1.36 18.24v58.08c0 68.04 55.36 123.4 123.4 123.4 4.34 0 8.62-0.22 12.84-0.66-62.04-6.44-110.58-59.02-110.58-122.74z" fill="#040404" opacity=".2" p-id="1371"></path><path d="M597.04 194.76c-12.46 25-43.38 31.84-48.24 32.78h-161.9c-19.6 0-35.54-15.96-35.54-35.54 0-18.9 14.12-36.1 29.64-36.1 1.34 0 2.72 0.12 4.08 0.38 18.5 3.42 37.16 5.16 55.46 5.16 74.66 0 127.46-28.38 148.42-41.96 14.76 31.12 17.48 56.42 8.08 75.28z" fill="#E59D89" p-id="1372"></path><path d="M597.58 141.12c-23.98 14.42-74.08 38.32-142.58 38.32-18.3 0-36.96-1.74-55.46-5.16-1.36-0.26-2.74-0.38-4.08-0.38-15.52 0-29.64 17.2-29.64 36.1 0 4.22 0.74 8.28 2.1 12.04-9.94-6.32-16.56-17.42-16.56-30.04 0-18.9 14.12-36.1 29.64-36.1 1.34 0 2.72 0.12 4.08 0.38 18.5 3.42 37.16 5.16 55.46 5.16 74.66 0 127.46-28.38 148.42-41.96 3.58 7.56 6.46 14.78 8.62 21.64z" fill="#040404" opacity=".2" p-id="1373"></path><path d="M629.46 499.54l-131.88 97.92-4.88-4.88 8.3-8.28c1.86-1.88 2.92-4.42 2.92-7.08s-1.06-5.2-2.94-7.08l-8.28-8.28 99.56-99.54 37.2 37.22z" fill="#EC7063" p-id="1374"></path><path d="M535.66 490.64l-57.1 57.08-57.1-57.1 5.66-42.02a142.724 142.724 0 0 0 51.44 9.58c18.12 0 35.46-3.42 51.44-9.58l5.66 42.04z" fill="#E59D89" p-id="1375"></path><path d="M535.66 490.64l-2.58 2.56-3.08-22.94a142.724 142.724 0 0 1-51.44 9.58c-18.12 0-35.46-3.42-51.44-9.58l-3.08 22.94-2.58-2.58 5.66-42.02a142.724 142.724 0 0 0 51.44 9.58c18.12 0 35.46-3.42 51.44-9.58l5.66 42.04z" fill="#040404" opacity=".2" p-id="1376"></path><path d="M479.78 577.22l-20.24 20.24-131.88-97.92 37.22-37.22z" fill="#EC7063" p-id="1377"></path><path d="M629.46 499.54l-10.24 7.6-26.96-27-90.68 90.68c-0.18-0.24-0.38-0.46-0.6-0.68l-8.28-8.28 99.56-99.54 37.2 37.22zM479.78 577.22l-8.9 8.92-106-106-26.98 27-10.24-7.6 37.22-37.22z" fill="#FFFFFF" opacity=".4" p-id="1378"></path><path d="M635.58 521.62h-2.32l-130.68 97.04c-1.78 1.32-3.88 1.98-5.96 1.98-2.58 0-5.14-1-7.08-2.94l-10.98-10.98-10.98 10.98c-1.94 1.94-4.5 2.94-7.08 2.94-2.08 0-4.18-0.66-5.96-1.98l-130.68-97.04h-2.32c-64.04 0-116.14 52.1-116.14 116.14v150.92h546.32v-150.92c0-64.04-52.1-116.14-116.14-116.14z m-157.02 250.92c-9.16 0-16.58-7.42-16.58-16.58 0-9.16 7.42-16.58 16.58-16.58 9.16 0 16.6 7.42 16.6 16.58 0 9.16-7.44 16.58-16.6 16.58z m0-49.14c-9.16 0-16.58-7.42-16.58-16.58 0-9.16 7.42-16.6 16.58-16.6 9.16 0 16.6 7.44 16.6 16.6s-7.44 16.58-16.6 16.58z m0-49.14c-9.16 0-16.58-7.44-16.58-16.6s7.42-16.58 16.58-16.58c9.16 0 16.6 7.42 16.6 16.58 0 9.16-7.44 16.6-16.6 16.6z m205.5 14.86h-87.8c-5.54 0-10-4.46-10-10 0-5.52 4.46-10 10-10h87.8c5.52 0 10 4.48 10 10 0 5.54-4.48 10-10 10z" fill="#EC7063" p-id="1379"></path><path d="M635.58 521.62h-2.32l-130.68 97.04c-1.78 1.32-3.88 1.98-5.96 1.98-2.58 0-5.14-1-7.08-2.94l-10.98-10.98-10.98 10.98c-1.94 1.94-4.5 2.94-7.08 2.94-2.08 0-4.18-0.66-5.96-1.98l-130.68-97.04h-2.32c-64.04 0-116.14 52.1-116.14 116.14v19.1c0-64.04 52.1-116.14 116.14-116.14h2.32l130.68 97.06c1.78 1.3 3.88 1.98 5.96 1.98 2.58 0 5.14-1 7.08-2.96l10.98-10.98 10.98 10.98c1.94 1.96 4.5 2.96 7.08 2.96 2.08 0 4.18-0.68 5.96-1.98l130.68-97.06h2.32c64.04 0 116.14 52.1 116.14 116.14v-19.1c0-64.04-52.1-116.14-116.14-116.14z" fill="#040404" opacity=".2" p-id="1380"></path><path d="M638.34 880.56c0 5.52-4.48 10-10 10H395.66c-5.52 0-10-4.48-10-10s4.48-10 10-10h232.68c5.52 0 10 4.48 10 10zM694.06 679.12c0 5.54-4.48 10-10 10h-87.8c-5.54 0-10-4.46-10-10 0-5.52 4.46-10 10-10h87.8c5.52 0 10 4.48 10 10zM532.38 351.34c0 29.72-24.1 53.8-53.82 53.8s-53.8-24.08-53.8-53.8h107.62zM462.1 292.8c0 11.64-9.44 21.1-21.1 21.1-11.64 0-21.1-9.46-21.1-21.1 0-11.66 9.46-21.1 21.1-21.1 11.66 0 21.1 9.44 21.1 21.1z" fill="#040404" p-id="1381"></path><path d="M495.16 657.66c0 9.16-7.44 16.6-16.6 16.6s-16.58-7.44-16.58-16.6 7.42-16.58 16.58-16.58c9.16 0 16.6 7.42 16.6 16.58zM495.16 706.82c0 9.16-7.44 16.58-16.6 16.58s-16.58-7.42-16.58-16.58c0-9.16 7.42-16.6 16.58-16.6 9.16 0 16.6 7.44 16.6 16.6zM495.16 755.96c0 9.16-7.44 16.58-16.6 16.58s-16.58-7.42-16.58-16.58c0-9.16 7.42-16.58 16.58-16.58 9.16 0 16.6 7.42 16.6 16.58z" fill="#FFFFFF" p-id="1382"></path><path d="M537.22 292.8c0 11.64-9.44 21.1-21.1 21.1s-21.1-9.46-21.1-21.1c0-11.66 9.44-21.1 21.1-21.1s21.1 9.44 21.1 21.1zM858.94 402.46c4.82-4.7 6.56-10.5 4.8-15.92-1.76-5.42-6.58-9.08-13.24-10.04l-39.52-5.74c-2.52-0.38-6.5-3.28-7.62-5.54l-17.68-35.82c-2.96-6.04-7.94-9.5-13.64-9.5s-10.68 3.46-13.66 9.5l-17.68 35.82c-1.12 2.28-5.12 5.16-7.62 5.54l-39.54 5.74c-6.64 0.96-11.48 4.62-13.24 10.04-1.76 5.42 0 11.22 4.82 15.92l28.6 27.88c1.82 1.76 3.34 6.46 2.9 8.96l-6.74 39.36c-0.9 5.26 0.2 10.06 3.1 13.5 4.34 5.14 11.86 6.28 18.98 2.56l35.36-18.6c0.78-0.4 2.46-0.88 4.7-0.88s3.94 0.48 4.72 0.88l35.36 18.6c2.84 1.48 5.68 2.24 8.44 2.24 4.2 0 7.94-1.7 10.54-4.8 2.9-3.44 4-8.24 3.1-13.5l-6.76-39.36c-0.42-2.5 1.1-7.2 2.92-8.96l28.6-27.88z m-42.56 13.56c-6.58 6.4-10.22 17.6-8.66 26.66l5.1 29.82-26.78-14.08c-3.9-2.06-8.88-3.18-14.02-3.18s-10.12 1.12-14.02 3.18l-26.78 14.08 5.12-29.82c1.56-9.04-2.1-20.26-8.66-26.66l-21.66-21.12 29.94-4.36c9.08-1.32 18.62-8.24 22.66-16.48l13.42-27.14 13.38 27.14c4.06 8.24 13.6 15.16 22.68 16.48l29.94 4.36-21.66 21.12z" fill="#040404" p-id="1383"></path><path d="M816.38 416.02c-6.58 6.4-10.22 17.6-8.66 26.66l5.1 29.82-26.78-14.08c-3.9-2.06-8.88-3.18-14.02-3.18s-10.12 1.12-14.02 3.18l-26.78 14.08 5.12-29.82c1.56-9.04-2.1-20.26-8.66-26.66l-21.66-21.12 29.94-4.36c9.08-1.32 18.62-8.24 22.66-16.48l13.42-27.14 13.38 27.14c4.06 8.24 13.6 15.16 22.68 16.48l29.94 4.36-21.66 21.12z" fill="#F9C139" p-id="1384"></path><path d="M772.04 346.92l8.3 16.82-7.3 14.74c-4.04 8.24-13.58 15.16-22.66 16.48l-29.94 4.36 21.66 21.12c6.56 6.4 10.22 17.62 8.66 26.66l-2.86 16.62-16.68 8.78 5.12-29.82c1.56-9.04-2.1-20.26-8.66-26.66l-21.66-21.12 29.94-4.36c9.08-1.32 18.62-8.24 22.66-16.48l13.42-27.14z" fill="#040404" opacity=".2" p-id="1385"></path><path d="M305.34 493.6a10.016 10.016 0 0 0-2.92 7.8c0.04 0.52 0.14 1.06 0.26 1.56-7.08 0.98-14 2.52-20.7 4.56L132.06 357.6v-57.34h38.82l163.88 163.88-29.42 29.46zM408.16 439.62l-4.48 33.22-31.74-31.74a9.976 9.976 0 0 0-7.06-2.92c-2.66 0-5.2 1.04-7.08 2.92l-4.34 4.34-145.18-145.18h73.9l60.58 60.56c11.42 33.56 34.96 61.58 65.4 78.8zM588.5 406.68l110.9 110.9a134.696 134.696 0 0 0-44.96-14.62c0.12-0.52 0.22-1.04 0.26-1.56 0.22-2.9-0.84-5.76-2.9-7.8l-52.46-52.5c-1.88-1.86-4.42-2.92-7.08-2.92s-5.2 1.04-7.08 2.92l-31.74 31.74-4.48-33.22a143.914 143.914 0 0 0 39.54-32.94zM891.94 710.12v78.56h-44.32l-75.9-75.9v-75-0.02c0-23.02-5.76-44.74-15.9-63.76l136.12 136.12z" fill="#FFFFFF" opacity=".4" p-id="1386"></path></svg>