<?xml version="1.0" standalone="no"?><!DOCTYPE svg PUBLIC "-//W3C//DTD SVG 1.1//EN"
        "http://www.w3.org/Graphics/SVG/1.1/DTD/svg11.dtd">
<svg t="1626768716327" class="icon" viewBox="0 0 1242 1024" version="1.1" xmlns="http://www.w3.org/2000/svg" p-id="30274" width="56" height="56"><path d="M455.128 95.316c9.335-14.963 30.632-14.963 45.948-10.946 1.677 1.544 3.685 2.229 5.98 2.052 4.812 0.552 9.534 2.075 13.794 4.37 1.037 0.53 3.09 1.61 4.127 2.14 9.909 3.333 18.846 9.027 27.873 14.235 8.165 4.679 14.322 12.204 22.642 16.64 14.102 2.361 28.933 0.33 42.704 4.833 1.92 1.39 4.038 1.942 6.378 1.721l2.096 0.398c1.942 1.456 4.127 2.074 6.555 1.898l2.118 0.286c1.788 1.545 3.863 2.23 6.224 2.097 2.604 0.199 5.098 0.839 7.503 1.898 1.016 0.574 3.046 1.7 4.061 2.273 7.018 1.633 12.932 6.069 19.134 9.556 49.677 30.014 96.552 66.913 130.427 114.494l2.891 3.597c7.283 8.43 12.8 18.251 19.134 27.41 4.679 7.812 10.46 15.161 13.55 23.812a238.649 238.649 0 0 0 2.34 4.017 17.528 17.528 0 0 1 2.273 6.863l2.229 4.083a21.562 21.562 0 0 1 2.273 6.907l1.766 4.326c4.17 8.695 8.055 17.633 11.277 26.77 0.507 1.015 1.567 3.09 2.096 4.126 6.71 12.778 12.028 26.285 18.67 39.107 3.311 6.951 7.592 13.462 10.064 20.789 0.508 1.059 1.523 3.133 2.053 4.17 5.429 9.402 8.629 20.392 16.375 28.271 8.033 5.142 17.898 6.599 25.887 11.917 1.059 0.486 3.178 1.435 4.237 1.92 34.383 12.535 62.587 36.79 91.012 59.057 12.756 9.29 22.731 21.583 31.691 34.405 0.265 1.346 0.839 4.017 1.126 5.363-1.148-0.044-3.42-0.088-4.568-0.132-1.038 0.507-3.156 1.5-4.216 1.986-3.619 1.478-7.503 2.273-11.387 2.516-2.317-0.221-4.326 0.463-6.025 2.008-1.832 0.22-5.473 0.64-7.305 0.86a30.51 30.51 0 0 0-10.085 1.237c-6.113 1.456-12.381 2.206-18.627 2.493-2.405-0.242-4.48 0.442-6.29 2.03l-2.03 0.42c-2.383-0.22-4.502 0.397-6.4 1.832-5.097 1.986-10.549 2.825-15.867 3.994 2.538 10.483 12.601 16.375 20.81 22.18 16.597 10.306 33.987 19.751 48.111 33.522 14.94 12.58 25.666 29.175 40.122 42.24 0.22 3.222 0.441 6.466 0.595 9.71-10.35-8.937-21.23-17.213-32.44-24.981-20.194-14.014-44.492-20.525-64.53-34.781-15.25-10.814-31.581-21.893-40.74-38.71-0.662-0.926-1.986-2.802-2.648-3.729l-1.722-0.64c0-1.06-0.022-3.178-0.044-4.215a639.078 639.078 0 0 0-2.361-3.994c-1.898-2.362-1.743-5.562-2.383-8.365 9.842-5.12 20.48-8.915 31.293-11.365 2.251 0.176 4.282-0.464 6.025-1.92 20.877-6.025 42.946-5.915 64.508-5.782-2.98-8.144-10.748-12.712-17.611-17.214-22.047-13.285-41.6-30.411-64.552-42.196-1.126-0.42-3.332-1.258-4.458-1.677l-1.898-0.132c-1.037-0.552-3.134-1.656-4.17-2.207-13.507-3.973-26.947-8.519-40.189-13.33-1.037-0.508-3.111-1.545-4.17-2.052-8.298-1.634-12.823-9.534-17.148-16-12.602-20.79-22.003-43.41-31.316-65.81a243.808 243.808 0 0 1-2.052-4.171c-2.891-4.105-5.275-8.673-6.643-13.506-0.508-1.038-1.523-3.134-2.053-4.171-5.164-9.91-10.57-20.017-13.66-30.787-0.53-1.037-1.59-3.111-2.119-4.17a20.63 20.63 0 0 1-2.096-7.107c-0.42-1.081-1.28-3.266-1.7-4.347-4.436-8.938-9.357-17.634-13.705-26.594-0.618-0.97-1.875-2.913-2.493-3.884-18.097-29.02-38.996-56.386-63.824-79.978-11.608-12.204-25.269-22.024-38.047-32.838-0.949-0.684-2.847-2.008-3.774-2.693-12.623-8.077-25.092-16.463-38.113-23.922a234.021 234.021 0 0 0-3.928-2.428c-6.952-2.361-13.66-5.561-20.105-9.07-1.059-0.486-3.2-1.435-4.259-1.898-4.745-0.839-9.401-2.384-13.66-4.613-1.7-1.589-3.708-2.273-5.981-2.008-16-0.265-32-1.589-47.868-3.553-8.629-3.796-14.543-11.719-22.643-16.441-16.816-10.285-34.803-19.09-53.848-24.365-7.636-2.45-16.309 0.089-19.972 7.57-2.605 2.847-1.898 7.062-0.221 10.174 6.201 17.655 19.862 30.808 30.433 45.793 6.687 9.688 14.257 19.112 18.45 30.257a382.82 382.82 0 0 0 2.339 4.06l0.088 1.854c0.508 1.06 1.523 3.2 2.008 4.26 1.413 2.228 2.141 4.7 2.163 7.37-0.22 2.273 0.464 4.26 2.075 5.915 2.758 4.877 4.237 10.46 4.789 16.022 0.53 1.06 1.589 3.2 2.118 4.26l0.155 2.052c0.441 1.125 1.346 3.398 1.787 4.524l0.442 2.052c0.485 1.104 1.478 3.333 1.964 4.436l0.199 2.008c0.485 1.082 1.456 3.244 1.942 4.348a18.827 18.827 0 0 1 2.339 7.04c0.485 1.06 1.412 3.2 1.898 4.26 5.296 8.893 9.158 18.67 15.647 26.835 5.34 7.46 13.705 12.8 16.86 21.738 1.501 8.232-0.882 16.596-3.928 24.188a359.957 359.957 0 0 0-1.81 4.325c-0.816 4.657-2.45 9.225-4.678 13.396-0.464 1.081-1.435 3.2-1.898 4.26-0.287 3.883-1.104 7.746-2.604 11.32-1.545 1.722-2.185 3.708-1.898 5.96-2.582 26.063-2.56 52.413 2.185 78.212-0.199 2.361 0.485 4.436 2.008 6.245l0.508 1.92c0.353 1.148 1.015 3.443 1.368 4.59 6.885 13.816 10.681 34.45 28.756 37.407 3.178-17.588 2.869-35.862 8.121-53.01 1.5-1.698 2.163-3.685 1.986-5.936 2.693-15.007 14.676-25.975 23.857-37.429 2.229 3.862 4.37 8.011 4.26 12.624 0.44 1.081 1.323 3.244 1.765 4.347 5.517 10.395 9.224 21.65 14.543 32.177 4.193 9.578 10.13 18.273 14.257 27.873l2.184 4.105c2.76 3.42 4.988 7.305 6.643 11.387 0.596 0.994 1.788 2.98 2.406 3.973 14.477 21.958 27.917 45.13 47.161 63.426 4.326 4.017 9.159 7.503 12.933 12.094-8.034-2.384-13.75-8.717-19.377-14.522-9.931-10.77-22.51-18.56-32.905-28.822-14.61-14.19-29.727-28.866-38.356-47.647-3.2-7.724-6.51-15.426-11.078-22.444-0.75-1.037-2.295-3.111-3.046-4.149a107.46 107.46 0 0 1-1.523-1.743c-1.942 2.869-2.648 6.29-2.582 9.71-1.721 13.595-2.604 27.564-6.554 40.74-0.552 1.015-1.633 3.045-2.185 4.06-1.81 3.686-4.59 8.166-8.828 9.07-1.037 0.552-3.09 1.678-4.104 2.23-11.41 4.766-23.879-1.788-31.625-10.196-7.724-8.806-14.963-18.538-18.891-29.661-0.574-0.993-1.7-3.023-2.273-4.039a18.834 18.834 0 0 1-2.207-7.194 373.747 373.747 0 0 0-1.898-4.37l-0.155-2.118c0.221-2.406-0.397-4.569-1.898-6.489l-0.33-2.074a8.74 8.74 0 0 0-1.678-6.422c-7.878-33.832-5.12-69.672 4.988-102.775 2.295-10.858 5.23-21.54 8.871-32.022-3.53-6.908-10.04-11.587-14.146-18.097-4.921-7.768-9.93-15.625-13.263-24.232-0.53-1.037-1.545-3.133-2.075-4.17-3.09-5.562-5.98-11.455-7.062-17.788a355.17 355.17 0 0 0-1.787-4.304c-4.547-10.77-8.938-21.87-11.388-33.302 0.177-2.273-0.42-4.303-1.832-6.09-6.554-23.902-24.055-42.197-38.554-61.53-4.657-6.487-10.218-12.733-12.58-20.501-0.551-1.015-1.655-3.068-2.206-4.083-3.973-8.188-4.547-17.876-2.251-26.637 0.507-1.037 1.544-3.134 2.052-4.171a1026.45 1026.45 0 0 1 2.207-4.833c0.662-0.95 2.008-2.847 2.67-3.774z" fill="#01618A" p-id="30275"></path><path d="M575.735 190.963c5.65-0.265 11.388-1.236 17.037-0.199 9.07 4.723 17.501 14.433 15.537 25.335-0.441 6.047-4.612 10.682-8.43 15.007-3.686-5.716-6.356-11.983-9.446-18.008-4.039-7.989-12.535-13.131-14.698-22.135zM134.555 685.97c2.317-13.529 17.037-17.876 28.755-19.421 15.47-3.178 34.582 3.928 39.548 20.017 0.485 1.059 1.456 3.155 1.942 4.215 4.414 8.585 8.364 17.5 11.233 26.725l2.207 4.06c2.008 3.51 3.774 7.306 4.392 11.344 0.53 1.038 1.633 3.09 2.162 4.105 2.207 3.443 3.818 7.283 4.635 11.3 0.508 1.059 1.5 3.155 1.986 4.193 8.762 17.456 14.742 36.259 24.055 53.473 5.827-11.763 9.998-24.298 16.287-35.818 0.53-1.037 1.59-3.112 2.119-4.127 7.128-18.847 15.867-37.23 24.43-55.504a363.374 363.374 0 0 1 2.075-4.149c1.964-7.062 5.186-13.77 8.65-20.193 0.575-1.015 1.744-3.001 2.318-4.016 6.863-14.036 25.423-18.913 39.658-14.963 1.787 1.457 3.818 2.052 6.113 1.766 11.233 0.22 21.23 10.24 20.502 21.671 0.441 47.184 0.309 94.39 0.044 141.573-11.652 0.154-23.349 0.618-35.001-0.155-0.199-45.175 0.794-90.394-0.464-135.547-1.81 2.317-3.53 4.722-4.722 7.437-16.331 37.252-33.214 74.262-49.7 111.448-3.53 6.908-8.54 14.875-16.75 16.331-2.273-0.198-4.281 0.464-5.98 1.964-8.1 0.662-17.148 1.744-24.608-1.92-1.037-0.507-3.133-1.5-4.193-1.986-3.862-1.743-7.106-5.12-8.673-9.048a588.496 588.496 0 0 0-2.494-3.862c-2.184-2.737-3.31-6.157-4.104-9.49-0.464-1.081-1.413-3.2-1.898-4.26-2.891-4.899-5.363-10.085-6.93-15.536a362.54 362.54 0 0 0-1.986-4.215c-8.651-18.207-17.104-36.612-24.585-55.305-0.508-1.06-1.545-3.134-2.052-4.193-5.407-8.232-6.51-19.001-13.396-26.218l-1.258-1.192c-2.318 44.845-1.06 89.733-1.678 134.621-10.725 1.236-21.56 1.346-32.33 0.64-0.905-48.574-0.287-97.192-0.31-145.765z m274.184 33.898c9.998 0.662 21.142-2.715 30.367 1.853 0.442 0.95 1.346 2.87 1.81 3.818-1.766 16.265-0.552 32.707-0.684 49.06 0.993 8.65-2.362 18.405 1.236 26.416a36.414 36.414 0 0 0 4.259 4.193c1.125 0.839 3.354 2.538 4.48 3.377 1.721 1.589 3.752 2.118 6.09 1.589 27.587 0.552 55.195-0.31 82.76 0.198 0.419-0.64 1.235-1.964 1.655-2.626 2.361-3.156 1.214-7.393 1.478-11.034-1.081-25.534 1.192-51.2-0.97-76.668 10.526 1.413 21.23 1.082 31.8 0.375 1.192 12.138 0.42 24.364 0.597 36.547-0.133 30.234 0.309 60.49-0.155 90.725-0.265 2.98-0.684 5.98-1.192 8.938-5.495 9.247-14.278 17.545-25.18 19.42l-4.282 2.097H540.8c-1.126 0.397-3.354 1.214-4.48 1.611-7.923 2.14-16.199 1.633-24.298 1.677-34.692-0.22-69.407 0.287-104.077-0.242-0.31-7.835-0.442-15.735 0.86-23.482 34.384 0.773 68.79 0.067 103.173 0.376 8.298-0.089 17.81-0.155 24.254-6.158 4.921-5.826 2.89-14.08 2.25-20.965-26.46 0.176-52.92 0.265-79.36 0-17.28-1.037-36.678-5.584-47.602-20.15-5.164-5.936-0.706-13.836-1.633-20.744-1.788-16.839-1.721-33.832-1.214-50.759 1.015-6.444 1.479-12.998 0.066-19.442z m760.387 77.484c4.259 0 8.562 0.242 12.844 0.64 0.22 2.295 0.706 4.767-0.353 6.974 0.904-6.908-5.87-7.747-11.145-7.526l-1.346-0.088z m31.271 6.907c4.48-0.397 4.083 9.358-0.198 8.96-0.11-3.001-0.067-6.002 0.198-8.96z m-8.85 15.691a125.572 125.572 0 0 1 3.863-10.041c3.73 2.626 0.728 11.586-3.862 10.041z" fill="#01618A" p-id="30276"></path><path d="M501.076 84.37c3.134-2.45 5.12-1.766 5.98 2.052-2.295 0.177-4.303-0.508-5.98-2.052z m19.774 6.422l1.765-0.971 2.14 1.103 0.222 2.008c-1.038-0.53-3.09-1.61-4.127-2.14z m-67.73 4.48l2.008 0.044c-0.662 0.927-2.008 2.825-2.67 3.774l-0.728-1.876 1.39-1.942z m-4.855 8.938l1.986-0.287c-0.508 1.037-1.545 3.134-2.052 4.17l-0.993-1.743 1.059-2.14z m18.89 18.957c-1.676-3.112-2.383-7.327 0.222-10.174 2.582 2.516 2.383 7.746-0.221 10.174z m151.04 5.473c3.024-2.582 5.165-2.008 6.379 1.721-2.34 0.221-4.458-0.33-6.378-1.721z m8.475 2.119c3.112-2.406 5.297-1.766 6.555 1.898-2.428 0.176-4.613-0.442-6.555-1.898z m8.673 2.184c3.2-2.36 5.275-1.655 6.224 2.097-2.361 0.132-4.436-0.552-6.224-2.097z m-184.893 1.788c0.551 1.015 1.655 3.068 2.207 4.083l-2.03-0.199-1.126-2.096 0.949-1.788z m198.62 2.207l1.788-0.905 2.074 1.17 0.199 2.008c-1.015-0.574-3.045-1.7-4.06-2.273z m-37.362 12.844c2.273-0.265 4.281 0.42 5.98 2.008-3.156 2.428-5.142 1.744-5.98-2.008z m19.641 6.62c1.06 0.464 3.2 1.413 4.26 1.899l-1.722 1.081-2.207-0.971-0.331-2.008z m24.364 10.969c0.993 0.596 2.957 1.81 3.928 2.428l-1.831 0.838-2.03-1.258-0.067-2.008z m42.041 26.35c0.927 0.685 2.825 2.009 3.774 2.693l-1.898 0.706-1.942-1.368 0.066-2.03z m-181.715 5.496l2.008 0.154 1.192 2.075-0.861 1.831a382.82 382.82 0 0 1-2.34-4.06z m2.427 5.914l1.986 0.353 1.038 2.185-1.016 1.721c-0.485-1.059-1.5-3.2-2.008-4.259z m4.171 11.63c3.796 0.795 4.48 2.759 2.075 5.915-1.611-1.655-2.295-3.642-2.075-5.915z m-18.847 4.083c1.413 1.788 2.009 3.818 1.832 6.091-3.818-0.97-4.436-3.001-1.832-6.09z m25.71 17.854l1.965 0.287 1.081 2.185-0.927 1.787c-0.53-1.06-1.589-3.2-2.118-4.26z m2.274 6.312l1.942 0.507 0.905 2.295-1.06 1.722c-0.441-1.126-1.346-3.399-1.787-4.524z m2.229 6.576l1.964 0.442 0.993 2.25-0.993 1.744c-0.486-1.103-1.479-3.332-1.964-4.436z m2.163 6.444l1.986 0.398 0.97 2.229-1.014 1.72c-0.486-1.103-1.457-3.265-1.942-4.347z m-19.156 2.207a355.156 355.156 0 0 1 1.787 4.304l-1.964-0.398-0.927-2.206 1.104-1.7z m285.682 3.024l2.009-0.199 1.478 1.854-0.596 1.942-2.89-3.597z m-262.245 6.157l2.008 0.331 0.971 2.207-1.081 1.721c-0.486-1.06-1.413-3.2-1.898-4.26z m-14.588 12.91c0.53 1.038 1.545 3.134 2.075 4.171l-2.03-0.265-1.06-2.14 1.015-1.766zM803.4 309.23c0.618 0.971 1.875 2.913 2.493 3.884l-2.03-0.022-1.28-2.008 0.817-1.854z m34.869 8.85l2.008 0.154 1.192 2.053-0.861 1.81a238.655 238.655 0 0 1-2.34-4.017z m4.612 10.88l2.008 0.199 1.148 2.096-0.927 1.788-2.229-4.083z m-23.283 10.748c0.42 1.081 1.28 3.266 1.7 4.347l-1.965-0.441-0.882-2.23 1.147-1.676z m27.785 0.242l1.986 0.398 0.905 2.229-1.125 1.699-1.766-4.326z m-278.268 10.814a359.957 359.957 0 0 1 1.81-4.325l1.104 1.699-0.95 2.207-1.964 0.42z m254.28 0.397c0.529 1.06 1.588 3.134 2.118 4.171l-1.986-0.264-1.082-2.141 0.95-1.766zM562.537 368.42c0.463-1.059 1.434-3.178 1.898-4.259l1.081 1.721-0.993 2.207-1.986 0.331z m297.887 2.627l2.008 0.22 1.081 2.14-0.993 1.766c-0.53-1.037-1.589-3.111-2.096-4.126z m-302.39 14.653c-0.286-2.25 0.354-4.237 1.899-5.958 2.516 3.09 1.876 5.076-1.898 5.958z m281.137 0.42c0.53 1.037 1.545 3.133 2.053 4.17l-1.986-0.264-1.06-2.14 0.993-1.766z m8.696 17.677c0.507 1.06 1.522 3.134 2.052 4.17l-2.008-0.264-1.06-2.14 1.016-1.766z m-216.784 26.527l1.964 0.42 0.905 2.228-1.103 1.7c-0.442-1.104-1.324-3.267-1.766-4.348z m260.171 4.745l2.008 0.264 1.06 2.163-1.015 1.744a243.808 243.808 0 0 1-2.053-4.171z m-290.273 25.997c-2.516-3.156-1.854-5.12 1.986-5.937 0.177 2.251-0.485 4.238-1.986 5.937z m-59.498 2.56c1.39 1.898 1.964 4.038 1.677 6.422-3.685-1.302-4.237-3.443-1.677-6.422z m18.737 0.287c3.73 0.993 4.391 3.067 2.008 6.245-1.523-1.81-2.207-3.884-2.008-6.245z m63.89 16.176c-0.067-3.42 0.64-6.841 2.581-9.71a107.46 107.46 0 0 0 1.523 1.743c1.324 2.737-0.574 8.828-4.105 7.967z m-80.619-7.967c1.501 1.92 2.119 4.083 1.898 6.489-3.663-1.192-4.281-3.355-1.898-6.489z m19.245-0.044l1.92 0.662 0.684 2.34-1.236 1.589c-0.353-1.148-1.015-3.443-1.368-4.59z m68.524 4.193c4.568 7.018 7.878 14.72 11.078 22.444-4.877-6.819-9.026-14.256-11.078-22.444z m304.309 3.156l1.743-1.06 2.185 0.994 0.309 1.986c-1.06-0.485-3.178-1.434-4.237-1.92z m-390.025 1.302a373.747 373.747 0 0 1 1.898 4.37l-1.942-0.397-0.971-2.23 1.015-1.743z m352.838 9.049c1.06 0.507 3.134 1.544 4.171 2.052l-1.743 1.015-2.163-1.06-0.265-2.007z m-348.733 2.515c0.573 1.016 1.699 3.046 2.273 4.039l-2.03-0.177-1.148-2.074 0.905-1.788z m112 2.428l2.03 0.199 1.103 2.118-0.949 1.788-2.184-4.105z m281.092 10.439c1.037 0.551 3.134 1.655 4.171 2.207l-1.787 0.904-2.141-1.125-0.243-1.986z m6.069 2.339c1.126 0.42 3.332 1.258 4.458 1.677l-1.677 1.148-2.273-0.839-0.508-1.986z m-278.334 2.714l2.03 0.089 1.236 2.052-0.86 1.832c-0.618-0.993-1.81-2.98-2.406-3.973z m-55.106 14.676c0.552-1.015 1.633-3.045 2.185-4.06l0.949 1.765-1.126 2.097-2.008 0.198z m-12.932 11.3c1.015-0.552 3.067-1.678 4.104-2.23l-0.22 2.009-2.119 1.125-1.765-0.904z m362.46 40.099c0.905-3.818 2.913-4.458 6.025-1.92-1.743 1.456-3.774 2.096-6.025 1.92z m89.953 5.738c1.06-0.486 3.178-1.479 4.216-1.986l-0.331 2.008-2.163 1.015-1.722-1.037z m-17.412 4.524c1.7-1.545 3.708-2.229 6.025-2.008-0.927 3.773-2.935 4.458-6.025 2.008z m-17.39 2.097a30.51 30.51 0 0 1 10.085-1.236c-0.066 4.347-8.055 4.391-10.085 1.236z m-24.916 4.524c1.81-1.59 3.884-2.273 6.29-2.03-1.016 3.663-3.09 4.347-6.29 2.03z m-8.43 2.25c1.897-1.434 4.016-2.052 6.4-1.831-1.214 3.708-3.333 4.325-6.4 1.832z m-50.715 0.597c0.596 0.993 1.765 2.979 2.361 3.994l-2.008-0.177-1.192-2.052 0.839-1.765z m4.127 8.85c0.662 0.926 1.986 2.802 2.648 3.729l-1.942 0.022-0.706-3.752z m-589.11 62.344c3.046-2.582 5.077-2.008 6.114 1.766-2.295 0.286-4.326-0.31-6.113-1.766z m-41.665 15.095l2.008-0.132c-0.574 1.015-1.743 3.001-2.317 4.016l-0.883-1.81 1.192-2.074z m-176.243 12.756c0.066-3.09 0.772-6.113 1.456-9.092 0.023 48.573-0.595 97.191 0.31 145.765 10.77 0.706 21.605 0.596 32.33-0.64 0.618-44.888-0.64-89.776 1.678-134.62l1.258 1.191c-0.53 45.264 0.463 90.593-0.53 135.857-12.16-0.331-24.32-0.11-36.48-0.044 0.066-46.147 0.154-92.293-0.022-138.417z m69.76-8.496l2.008 0.308 0.993 2.185-1.059 1.722c-0.486-1.06-1.457-3.156-1.942-4.215z m583.393 0.044l2.008 0.176c-0.728 0.883-2.185 2.693-2.913 3.597l-0.596-1.92 1.501-1.853z m42.108 9.887l0.838-0.42-0.838 0.42z m251.52 0.86c2.471 4.348 4.568 8.894 6.333 13.573-1.39-0.331-4.215-1.016-5.627-1.347a95.883 95.883 0 0 1-0.11-2.515c-0.155-3.245-0.376-6.489-0.596-9.71z m-781.507 9.27l2.009-0.244a363.358 363.358 0 0 0-2.075 4.15l-1.015-1.744 1.081-2.163z m-82.339 10.88l2.03 0.176 1.126 2.096-0.949 1.788-2.207-4.06z m191.007 1.787c11.697-3.377 24.1-1.258 36.105-1.346 1.081 15.911 0.198 31.89 0.463 47.845 0.353 13.131-1.456 26.571 2.119 39.415a36.414 36.414 0 0 1-4.26-4.193c-1.147-26.946 0.685-54.069-0.728-81.015-10.924-2.45-22.51 0.309-33.699-0.706z m132.149 0.397c2.405-3.266 6.863-2.295 10.35-2.648 7.592-0.089 15.206 0.11 22.798 0.198l-0.398 2.428c-10.902-0.132-21.826 0.11-32.75 0.022z m34.494-1.7c3.111 5.055 2.096 11.256 2.273 16.928-0.177 33.831-0.066 67.663-0.066 101.517-0.089 6.841 0.287 14.19-3.62 20.193 0.508-2.957 0.927-5.959 1.192-8.938 1.17-43.211 0.375-86.488 0.22-129.7z" fill="#434944" opacity=".21" p-id="30277"></path><path d="M406.047 720.971l2.56 0.044c-1.17 27.675 0.905 55.437-0.839 83.09-2.471-5.87-1.854-12.293-1.831-18.45 0.33-21.561 0.397-43.145 0.11-64.684z m132.392 0.022l2.538-0.11c-0.354 28.954 0.264 57.93-0.265 86.863-0.42 0.662-1.236 1.986-1.655 2.626-1.457-29.726-0.287-59.608-0.618-89.379z m-354.913 2.891c0.507 1.06 1.544 3.134 2.052 4.193l-2.03-0.265-1.038-2.162 1.016-1.766z m39.106 9.026l2.008 0.221 1.103 2.119-0.949 1.765c-0.53-1.015-1.633-3.067-2.162-4.105z m6.797 15.404l2.008 0.287 1.015 2.185-1.037 1.722a683.631 683.631 0 0 0-1.986-4.194z m42.439 17.943l2.008-0.221a711.67 711.67 0 0 0-2.119 4.127l-0.993-1.788 1.104-2.118z m898.515 16.684c0.64-4.304 11.278-4.127 11.697 0.287a520.263 520.263 0 0 0-11.697-0.287z m-960.22 0.441c0.507 1.06 1.5 3.156 1.986 4.215l-2.008-0.309-1.015-2.162 1.037-1.744z m686.61 7.349c0.176 0.155 0.53 0.486 0.706 0.64-0.177-0.154-0.53-0.485-0.707-0.64z m268.888 2.03c5.362-0.463 10.747-0.706 16.132-0.22l-1.854 1.015c-4.413 0.22-8.85 0.375-13.263 0.552a341.646 341.646 0 0 0-0.75 25.158c-0.729-8.827-1.016-17.677-0.265-26.505z m-245.915 5.76c0.508-1.037 1.5-3.111 2.008-4.17l0.994 1.765-1.038 2.118-1.964 0.287z" fill="#434944" opacity=".21" p-id="30278"></path><path d="M1170.67 800.64c0.155 1.148 0.486 3.443 0.662 4.59-0.507-0.772-1.5-2.339-2.008-3.111l1.346-1.479z m23.195 0.817l1.942 0.44 0.905 2.23-1.06 1.7c-0.441-1.082-1.324-3.29-1.787-4.37z m-974.786 1.677c0.485 1.06 1.434 3.178 1.898 4.26l-2.009-0.354-0.97-2.185 1.08-1.721z m760.915 2.67c0.663 0.95 1.965 2.87 2.605 3.818h-2.009l-1.346-1.964 0.75-1.854z m-529.787 2.78c2.957-2.56 4.987-2.03 6.09 1.59-2.338 0.53-4.369 0-6.09-1.59z m719.89 2.23l1.08-0.199c2.605 2.67 2.252 10.836-1.853 11.167 0.088-3.663 0.044-7.371 0.773-10.968z m-945.016 6.069a588.47 588.47 0 0 1 2.494 3.862l-2.008-0.022-1.302-2.009 0.816-1.831z m945.347 10.57a76.668 76.668 0 0 1 9.533 0.266c0.045 4.127-9.93 3.928-9.533-0.265z m-934.18 2.34c1.06 0.486 3.156 1.479 4.193 1.986l-1.721 1.015-2.163-1.015-0.309-1.986z m28.8 3.906c1.7-1.5 3.708-2.162 5.981-1.964-0.905 3.818-2.891 4.48-5.98 1.964z m277.76 44.447l4.282-2.096-0.331 1.986-2.185 1.06-1.766-0.95z m-6.488 1.611c1.126-0.397 3.354-1.214 4.48-1.61l-0.552 1.92-2.273 0.838-1.655-1.148z" fill="#434944" opacity=".21" p-id="30279"></path><path d="M607.868 687.47c10.725-13.373 28.778-17.964 45.241-18.03 35.31-0.177 70.62-0.177 105.909 0 0.397 7.746 0.243 15.514 0.044 23.283-33.832-0.155-67.685-0.265-101.495 0.022-7.217 0.618-17.545 0.596-19.928 9.203-1.236 7.989-0.486 16.198-0.133 24.231 0.706 7.879 8.408 12.27 15.625 12.8 21.716 2.34 43.74-1.059 65.39 1.898 14.478 3.355 31.47 8.695 38.047 23.371 2.494 9.821 0.795 20.238 1.302 30.301 0.927 10.66-5.583 20.657-14.278 26.306-12.337 8.033-27.211 11.542-41.821 11.498-30.19 0.22-60.38-0.132-90.571 0.177-3.443-0.067-7.548 1.037-9.468-2.715-0.463-7.018-0.066-14.058 0.618-21.054 33.898 0.221 67.818 0.42 101.738-0.088 7.393 0.331 13.727-4.325 17.92-10.041 0.729-9.313 0.971-18.803-0.088-28.094-3.752-5.01-9.269-8.497-15.625-8.784-21.473-2.582-43.343 0.817-64.794-2.405-12.558-3.09-26.284-7.15-34.516-17.876-5.893-7.481-4.877-17.523-4.922-26.439 0.177-9.357-0.397-19.795 5.805-27.564z m180.391-0.684c9.291-11.696 25.291-14.985 39.371-16.838 22.025-0.927 44.094-0.221 66.163-0.398 18.98-0.022 41.115 2.23 54.201 17.722 6.445 6.73 7.15 16.596 7.173 25.445-0.044 26.571 0.044 53.12-0.11 79.691-0.023 6.621-0.685 13.573-4.171 19.377-3.51 6.245-10.108 9.644-15.736 13.705 10.064 11.034 22.334 19.84 32.155 31.139-12.028 0.199-24.055 0.22-36.06-0.044-4.79 0.088-7.526-4.414-10.88-7.062-6.754-5.893-12.558-12.977-20.15-17.832-3.53-0.927-7.216-0.243-10.747-0.044-16.883 2.052-33.876 1.236-50.825 1.39-15.868 0.177-32.773-2.89-45.55-12.888-8.52-6.466-13.043-17.236-12.668-27.807 0.11-27.255 0-54.51 0.066-81.743 0.199-6.886 0.706-14.5 4.855-20.216 0.728-0.904 2.185-2.714 2.913-3.597m40.938 9.291l-0.838 0.42c-4.282 2.626-9.931 6.157-9.512 11.895-0.177 27.299-0.088 54.62-0.044 81.942-0.552 10.725 10.416 18.295 20.281 18.67 11.873 0.353 23.768 0.662 35.642 0.31-7.88-10.064-19.642-16.332-27.234-26.594 13.131 0.066 26.307-0.441 39.438 0.243 3.773 1.854 6.664 5.054 9.842 7.768 0.177 0.155 0.53 0.486 0.707 0.64 5.274 4.988 10.615 9.931 16.176 14.61 1.92-2.494 5.65-4.127 6.091-7.46l1.964-0.287 1.038-2.118-0.994-1.766c1.48-22.687 0.332-45.528 0.75-68.259-0.22-7.945 1.06-16.53-2.802-23.812-4.855-6.533-13.462-9.07-21.296-9.159-14.036-0.42-28.072 0.044-42.108-0.154-9.092 0.088-18.648-1.016-27.1 3.111z m148.48-15.536c11.851 7.525 23.79 15.007 35.002 23.481-0.331 29.44-0.177 58.902-0.11 88.364-1.259 9.975 9.688 15.382 18.096 16.155 33.61 0.927 67.266-0.022 100.877 0.551 3.553 6.621 0.75 15.78 1.479 23.371-30.433-0.132-60.889 0.067-91.322-0.132-16.64-0.53-34.25-2.119-48.64-11.277-4.259-2.891-9.092-6.157-10.46-11.432-0.64-0.949-1.942-2.869-2.605-3.818-2.913-6.312-2.339-13.418-2.45-20.17 0.133-35.024-0.154-70.07 0.133-105.093z m178.03 110.985c3.576-4.547 9.005-7.548 14.676-8.585 3.885 0.044 7.79 0.154 11.697 0.287 9.49 2.074 18.869 10.813 18.317 21.031-0.265 2.958-0.309 5.959-0.198 8.96-0.861 17.92-25.49 27.079-39.173 16.398-12.292-7.99-15.029-27.145-5.318-38.091m8.121-0.508c-14.323 8.32-10.152 34.759 6.599 36.436-0.398 4.193 9.578 4.392 9.533 0.265 5.23 1.213 9.6-3.421 11.587-7.769 4.59 1.545 7.591-7.415 3.862-10.041 0.066-1.015 0.176-3.046 0.242-4.083l1.06-1.7-0.905-2.228-1.942-0.441c-1.192-13.485-20.304-18.693-30.036-10.44z" fill="#E48E01" p-id="30280"></path><path d="M1166.676 794.108c4.414-0.177 8.85-0.331 13.263-0.552a257.132 257.132 0 0 1 8.144 3.465c0.97 6.223-2.23 11.1-7.106 14.587 2.383 3.73 4.7 7.548 6.4 11.675-7.107-0.552-8.938-8.43-12.447-13.308-0.927 0.155-2.825 0.486-3.752 0.64l-1.081 0.199c-0.729 3.597-0.685 7.305-0.773 10.968-0.816 0.508-2.427 1.479-3.222 1.964l-0.176-4.48c-0.067-8.386 0.198-16.794 0.75-25.158m2.45 3.244l1.346 0.088 0.198 3.2-1.346 1.479c0.508 0.772 1.5 2.339 2.008 3.111l10.505 1.148-0.22-1.412c1.059-2.207 0.573-4.68 0.353-6.974-4.282-0.398-8.585-0.64-12.844-0.64z" fill="#E48E01" p-id="30281"></path></svg>
