<?xml version="1.0" standalone="no"?><!DOCTYPE svg PUBLIC "-//W3C//DTD SVG 1.1//EN"
        "http://www.w3.org/Graphics/SVG/1.1/DTD/svg11.dtd">
<svg t="1626768788307" class="icon" viewBox="0 0 1024 1024" version="1.1" xmlns="http://www.w3.org/2000/svg" p-id="33101" width="48" height="48"><path d="M532.48 389.12h104.96v107.52H691.2c25.6 0 48.64-5.12 71.68-12.8 12.8-5.12 23.04-10.24 35.84-15.36-15.36-20.48-23.04-43.52-25.6-66.56-2.56-33.28 2.56-74.24 25.6-99.84l10.24-12.8 12.8 10.24c33.28 25.6 61.44 64 66.56 104.96 40.96-12.8 87.04-7.68 120.32 10.24l15.36 7.68-7.68 15.36c-30.72 58.88-92.16 76.8-151.04 71.68-89.6 225.28-286.72 332.8-527.36 332.8-122.88 0-238.08-46.08-302.08-156.16v-2.56L25.6 665.6c-23.04-48.64-28.16-102.4-23.04-153.6l2.56-15.36h89.6v-107.52h104.96v-104.96H409.6v-102.4h125.44v207.36z m0 0" fill="#394D54" p-id="33102"></path><path d="M870.4 430.08c7.68-53.76-33.28-97.28-58.88-117.76-28.16 33.28-33.28 122.88 12.8 158.72-25.6 23.04-79.36 43.52-133.12 43.52H17.92c-5.12 56.32 5.12 110.08 28.16 156.16l7.68 12.8 15.36 23.04c28.16 2.56 53.76 2.56 76.8 2.56 46.08 0 81.92-5.12 110.08-15.36 5.12-2.56 7.68 0 10.24 5.12 2.56 5.12 0 7.68-5.12 10.24-2.56 0-7.68 2.56-12.8 2.56-23.04 5.12-46.08 10.24-76.8 12.8h-2.56H81.92c56.32 61.44 143.36 99.84 253.44 99.84 232.96 0 427.52-102.4 514.56-332.8 61.44 5.12 120.32-10.24 148.48-61.44-40.96-25.6-94.72-15.36-128 0z m0 0" fill="#00AADA" p-id="33103"></path><path d="M870.4 430.08c7.68-53.76-33.28-97.28-58.88-117.76-28.16 33.28-33.28 122.88 12.8 158.72-25.6 23.04-79.36 43.52-133.12 43.52H58.88c-2.56 87.04 30.72 153.6 87.04 194.56 46.08 0 81.92-5.12 110.08-15.36 5.12-2.56 7.68 0 10.24 5.12 2.56 5.12 0 7.68-5.12 10.24-2.56 0-7.68 2.56-12.8 2.56-23.04 5.12-48.64 10.24-79.36 12.8 79.36 40.96 194.56 40.96 325.12-10.24 145.92-56.32 284.16-163.84 378.88-286.72 0 0 0 2.56-2.56 2.56z m0 0" fill="#24B8EB" p-id="33104"></path><path d="M186.88 414.72h7.68v74.24h-7.68v-74.24z m-15.36 0H179.2v74.24h-7.68v-74.24z m-12.8 0h7.68v74.24h-7.68v-74.24z m-15.36 0h7.68v74.24h-7.68v-74.24z m-12.8 0h7.68v74.24h-7.68v-74.24z m-12.8 0h7.68v74.24h-7.68v-74.24z m-7.68-7.68h89.6v89.6H110.08v-89.6z m179.2-97.28h7.68V384h-7.68v-74.24z m-12.8 0h7.68V384h-7.68v-74.24z m-12.8 0h7.68V384h-7.68v-74.24z m-15.36 0h7.68V384h-7.68v-74.24z m-12.8 0h7.68V384h-7.68v-74.24z m-12.8 0H230.4V384h-7.68v-74.24z m-7.68-7.68h89.6v89.6H215.04v-89.6z m0 0" fill="#00ACD3" p-id="33105"></path><path d="M289.28 414.72h7.68v74.24h-7.68v-74.24z m-12.8 0h7.68v74.24h-7.68v-74.24z m-12.8 0h7.68v74.24h-7.68v-74.24z m-15.36 0h7.68v74.24h-7.68v-74.24z m-12.8 0h7.68v74.24h-7.68v-74.24z m-12.8 0H230.4v74.24h-7.68v-74.24z m-7.68-7.68h89.6v89.6H215.04v-89.6z m0 0" fill="#20C2EF" p-id="33106"></path><path d="M394.24 414.72h7.68v74.24h-7.68v-74.24z m-12.8 0h7.68v74.24h-7.68v-74.24z m-12.8 0h7.68v74.24h-7.68v-74.24z m-15.36 0h7.68v74.24h-7.68v-74.24z m-12.8 0h7.68v74.24h-7.68v-74.24z m-12.8 0h5.12v74.24h-7.68v-74.24z m-7.68-7.68H409.6v89.6h-89.6v-89.6z m0 0" fill="#00ACD3" p-id="33107"></path><path d="M394.24 309.76h7.68V384h-7.68v-74.24z m-12.8 0h7.68V384h-7.68v-74.24z m-12.8 0h7.68V384h-7.68v-74.24z m-15.36 0h7.68V384h-7.68v-74.24z m-12.8 0h7.68V384h-7.68v-74.24z m-12.8 0h5.12V384h-7.68v-74.24z m-7.68-7.68H409.6v89.6h-89.6v-89.6z m179.2 112.64h7.68v74.24h-7.68v-74.24z m-12.8 0h7.68v74.24H486.4v-74.24z m-15.36 0h7.68v74.24h-7.68v-74.24z m-12.8 0h7.68v74.24h-7.68v-74.24z m-12.8 0h7.68v74.24h-7.68v-74.24z m-15.36 0h7.68v74.24h-7.68v-74.24z m-7.68-7.68H512v89.6h-89.6v-89.6z m0 0" fill="#20C2EF" p-id="33108"></path><path d="M499.2 309.76h7.68V384h-7.68v-74.24z m-12.8 0h7.68V384H486.4v-74.24z m-15.36 0h7.68V384h-7.68v-74.24z m-12.8 0h7.68V384h-7.68v-74.24z m-12.8 0h7.68V384h-7.68v-74.24z m-15.36 0h7.68V384h-7.68v-74.24z m-7.68-7.68H512v89.6h-89.6v-89.6z m0 0" fill="#00ACD3" p-id="33109"></path><path d="M499.2 204.8h7.68v76.8h-7.68V204.8zM486.4 204.8h7.68v76.8H486.4V204.8z m-15.36 0h7.68v76.8h-7.68V204.8z m-12.8 0h7.68v76.8h-7.68V204.8z m-12.8 0h7.68v76.8h-7.68V204.8z m-15.36 0h7.68v76.8h-7.68V204.8z m-7.68-7.68H512v89.6h-89.6V197.12z m0 0" fill="#20C2EF" p-id="33110"></path><path d="M604.16 414.72h7.68v74.24h-7.68v-74.24z m-12.8 0h7.68v74.24h-7.68v-74.24z m-15.36 0h7.68v74.24h-7.68v-74.24z m-12.8 0h7.68v74.24H563.2v-74.24z m-12.8 0h7.68v74.24h-7.68v-74.24z m-15.36 0h7.68v74.24h-7.68v-74.24z m-7.68-7.68h89.6v89.6h-89.6v-89.6z m0 0" fill="#00ACD3" p-id="33111"></path><path d="M299.52 645.12c12.8 0 25.6 10.24 25.6 25.6 0 12.8-10.24 25.6-25.6 25.6-12.8 0-25.6-10.24-25.6-25.6s12.8-25.6 25.6-25.6" fill="#D4EDF1" p-id="33112"></path><path d="M299.52 652.8h5.12c-2.56 2.56-5.12 5.12-2.56 7.68 0 2.56 2.56 5.12 7.68 5.12 2.56 0 5.12-2.56 5.12-5.12 0 2.56 2.56 5.12 2.56 7.68 0 10.24-7.68 17.92-17.92 17.92-10.24 0-17.92-7.68-17.92-17.92 0-7.68 7.68-15.36 17.92-15.36" fill="#394D54" p-id="33113"></path><path d="M366.08 824.32c-61.44-28.16-97.28-69.12-115.2-112.64-23.04 7.68-51.2 10.24-81.92 12.8H130.56c-15.36 0-33.28 0-48.64-2.56 56.32 56.32 125.44 99.84 256 102.4 10.24 2.56 17.92 2.56 28.16 0z m0 0" fill="#BFDBE0" p-id="33114"></path><path d="M273.92 752.64c-10.24-12.8-17.92-25.6-23.04-40.96-23.04 7.68-51.2 10.24-81.92 12.8 20.48 12.8 53.76 23.04 104.96 28.16z m0 0" fill="#D4EDF1" p-id="33115"></path></svg>
