<svg xmlns="http://www.w3.org/2000/svg" class="icon" width="48" height="48" viewBox="0 0 38 60">
    <path fill="#516BA9" d="m15.105 32.057v15.565a.059.059.0 01-.049.059L.069 50.25A.06.06.0 01.005 50.167l14.987-33.47a.06.06.0 01.114.025z"></path>
    <path fill="#516BA9" d="m17.631 23.087v24.6a.06.06.0 00.053.059l22.449 2.507a.06.06.0 00.061-.084L17.745.032a.06.06.0 00-.114.024z"></path>
    <path fill="#516BA9" d="m39.961 52.548-24.833 7.45a.062.062.0 01-.043.0L.079 52.548a.059.059.0 01.026-.113h39.839a.06.06.0 01.017.113z"></path>
</svg>