<?xml version="1.0" standalone="no"?><!DOCTYPE svg PUBLIC "-//W3C//DTD SVG 1.1//EN"
        "http://www.w3.org/Graphics/SVG/1.1/DTD/svg11.dtd">
<svg t="1592726937303" class="icon" viewBox="0 0 1024 1024" version="1.1" xmlns="http://www.w3.org/2000/svg" p-id="2236" width="48" height="48"><path d="M378.384 871.794A35.215 35.215 0 0 0 402.7 812.32c-14.272-13.943-93.028-72.158-113.584-95.051-9.543-10.628-22.466-15.835-27.944-27.771-12.594-27.467-21.42-66.663-5.446-94.813 2.896-5.091 4.747-2.805 2.542 7.79-12.544 60.066 26.726 109.126 35.372 83.963 5.972-17.373 0.436-48.476 3.628-73.178 5.65-43.705 45.596-127.61 63.142-132.405-27.063-49.916 31.736-88.989 31.02-132.8-0.469-28.487 25.13 35.026 50.861 48.5 28.734 15.037 60.321-28.339 105.145-50.351 12.684-6.227 28.955-13.384 27.861-18.69-5.265-25.615-58.89 31.596-106.773 33.53-21.865 0.871-29.967-4.27-38.415-12.397-25.525-24.563 2.6-4.064 40.545-10.9 16.864-3.043 22.531-5.84 40.431-13.038 17.9-7.206 38.35-17.867 58.602-23.345 14.1-3.817 12.923-14.363 7.444-17.53-3.158-1.826-7.83-1.653-11.54 4.73-8.687 14.963-49.546 23.609-62.296 27.491-16.378 4.985-34.491 9.65-58.544 8.67-36.556-1.472-28.034-18.162-54.185-33.092-7.666-4.377-5.601-15.868 4.59-26.02 5.331-5.321 19.965-8.324 27.22-20.416 1.02-1.695 10.365-11.434 17.694-16.468 2.534-1.753 2.756-46.19-20.145-47.102-19.454-0.782-24.99 14.239-24.168 29.202 0.814 14.955 8.777 27.294 14.075 27.236 10.208-0.107 0.65 11.122-4.944 12.931-8.498 2.756-20.146-33.307-18.805-50.614 1.399-18.031 10.826-49.973 33.751-49.348 20.64 0.56 35.602 26.332 34.846 70.777-0.132 7.535 33.471-3.595 44.683 8.2 8.012 8.44-27.475-78.746 51.552-84.751 20.828 3.973 40.818 10.866 49.134 58.527-3.077 4.96 5.182 38.21-7.667 42.159-15.678 4.82-25.36-0.7-16.295-15.572 6.202-14.939 0.14-52.934-31.596-50.648-31.744 2.28-27.533 58.364-18.83 59.474 8.704 1.103 30.618 16.592 45.918 19.562 50.22 9.73 13.326 38.398 19.84 73.087 7.363 39.189 33.283 28.84 56.587 132.603 4.862 6.317 24.16 12.306 42.965 92.024 16.912 71.722-7.034 123.883 33.636 119.597 9.163-0.962 22.547-3.512 28.371-23.83 15.218-53.116-7.626-116.414-30.691-159.132-13.433-24.9-26.085-41.862-32.764-47.686 26.43 15.556 60.222 65.24 68.02 102.134 10.242 48.45 17.555 68.966 2.057 120.206 8.941 4.45 31.193 13.86 31.193 24.44-23.181-18.978-94.146-22.342-95.973 23.024-12.1 0.238-21.256 1.225-29.046 10.439-28.527 33.693-2.04 101.401-4.927 137.71-2.55 31.95-11.442 63.595-16.46 95.693-16.987-0.641-15.325-13.03-9.88-30.387 4.813-15.325 12.562-34.524 13.072-52.934 0.46-16.665-1.366-27.071-5.586-29.654-4.228-2.591-10.833 2.657-19.964 17.29-19.488 31.251-61.695 44.997-101.114 49.908-39.41 4.919-76.049 1.02-95.454-20.623-6.63-7.403-17.636 2.016-18.944 3.982-1.753 2.632 6.424 7.748 12.577 19.002 9 16.435 17.554 41.376-3.76 52.76 0.24-57.869-18.154-61.258-36.95-96.621z m-14.091-1.53c14.124 22.136 63.89 115.352-23.354 127.453-29.177 4.047-76.164-16.905-121.678-27.993-40.9-9.962-82.433-15.86-105.671-22.367-13.993-3.915-19.841-8.917-21.059-14.749-3.224-15.473 16.995-37.173 18.015-55.484 1.029-18.32-6.712-27.837-13.046-42.783-6.35-14.98-7.996-26.2-2.92-32.624 3.948-4.994 11.977-7.083 25.031-5.816 16.55 1.62 36.532-1.752 47.275-8.275 18.089-10.99 26.594-33.505 18.459-60.626 0 26.545-8.744 36.598-30.658 48.73-20.647 11.443-52.531 2.189-67.182 14.849-17.628 15.234 6.293 54.563 4.335 83.427-1.505 22.178-24.752 47.176-14.387 69.42 10.43 22.382 59.063 24.825 109.776 35.371 72.076 15.02 114.11 41.146 147.41 42.38 48.582 1.794 56.026-47.867 132.314-48.533a1655.08 1655.08 0 0 1 65.742-2.13c24.637-0.305 49.24-0.107 74.502 0.501 50.763 1.218 33.307 27.598 66.244 44.453 27.787 14.215 77.744 8.605 89.704-2.747 16.173-15.358 59.606-52.317 92.871-69.008 41.484-20.82 138.871-56.635 68.169-100.324-16.477-10.183-55.435-20.943-58.717-95.413-14.75 13.047-13.046 82.441 28.125 96.211 45.983 15.375 74.708 41.13-10.776 70.242-56.595 19.273-66.22 25.212-111.018 62.344-45.333 37.577-112.622 22.655-100.867-56.47 6.12-41.221 9.641-75.285-0.658-111.109-5.026-17.505-7.535-39.953-4.096-55.698 6.679-30.617 23.328-39.83 39.64-10.439 10.242 18.451 13.828 40.02 50.491 41.772 57.599 2.747 69-55.419 87.41-58.067 12.281-1.76 24.546-36.367 15.201-92.337-10.019-59.926-45.432-154.541-90.84-202.523-37.74-39.88-61.521-74.84-76.484-124.747-12.57-41.928-19.594-82.737-17.003-121.753 3.364-50.548-24.793-120.897-69.617-153.998C576.918 10.683 532.926-0.414 493.095 0.022c-22.334 0.239-43.35 3.488-59.507 12.216-66.474 35.93-75.76 87.26-74.766 145.846 0.93 55.032 2.814 117.829 9.09 177.566-7.436 27.433-46.131 79.43-70.916 111.075-33.323 32.772-50.145 96.112-71.714 151.456-11.5 29.499-30.872 42.825-32.5 80.755-0.453 10.611-0.091 38.053 10.093 30.206 38.982-30.009 87.762 45.654 161.418 161.122zM566.56 77.05c-2.098 6.252-10.743 11.459-5.256 15.843 5.495 4.376 8.637-6.12 19.684-10.052 2.855-1.02 16.132 0.428 18.575-5.857 1.069-2.74-6.844-5.865-11.558-10.356-4.713-4.475-9.336-8.473-13.77-8.185-11.442 0.724-5.816 13.063-7.675 18.607zM451.504 234.816c-18.22-1.357-19.47 11.763-13.433 11.549 6.153-0.214 2.37-10.381 13.433-11.55z m-31.258-33.513c2.155-0.469 5.215 3.184 4.269 8.308-1.324 7.108-0.749 11.566 4.204 11.59 0.814 0 1.694-0.147 2.007-1.998 2.377-14.173-5.018-24.571-8.045-25.344-6.968-1.769-6.12 8.226-2.435 7.444z m132.668-5.997c4.623 1.374 9.073 9.345 10.044 17.95 0.09 0.797 6.038-1.234 6.096-3.118 0.37-13.86-11.509-20.376-14.618-20.096-7.157 0.65-5.141 4.195-1.522 5.264z m-68.012 41.204c16.575-7.642 22.375 4.204 16.65 6.112-5.833 1.942-5.882-8.892-16.65-6.112z" p-id="2237" fill="#bfbfbf"></path></svg>