<?xml version="1.0" standalone="no"?><!DOCTYPE svg PUBLIC "-//W3C//DTD SVG 1.1//EN"
        "http://www.w3.org/Graphics/SVG/1.1/DTD/svg11.dtd">
<svg t="1626768348102" class="icon" viewBox="0 0 1024 1024" version="1.1" xmlns="http://www.w3.org/2000/svg" p-id="8093" width="48" height="48"><path d="M942.4896 467.0464L556.9536 81.5104C545.0752 69.7344 528.5888 62.6688 512 62.6688c-16.5888 0-33.0752 7.0656-44.9536 18.944l-82.7392 82.7392L481.28 261.3248c9.4208-4.7104 18.944-7.0656 30.72-7.0656 40.2432 0 70.9632 30.72 70.9632 70.9632 0 11.776-2.3552 21.2992-7.0656 30.72L670.5152 450.56c9.4208-4.7104 18.944-7.0656 30.72-7.0656 40.2432 0 70.9632 30.72 70.9632 70.9632s-30.72 70.9632-70.9632 70.9632c-40.2432 0-70.9632-30.72-70.9632-70.9632 0-11.776 2.3552-21.2992 7.0656-30.72L542.72 389.0176c-2.3552 0-4.7104 2.3552-7.0656 2.3552v245.9648c28.3648 9.4208 47.3088 35.4304 47.3088 66.2528 0 40.2432-30.72 70.9632-70.9632 70.9632s-70.9632-30.72-70.9632-70.9632c0-30.72 18.944-56.7296 47.3088-66.2528V389.0176c-28.3648-9.4208-47.3088-35.4304-47.3088-66.2528 0-11.776 2.3552-21.2992 7.0656-30.72l-96.9728-96.9728L81.5104 467.0464C69.7344 478.9248 62.6688 495.4112 62.6688 512c0 16.5888 7.0656 33.0752 18.944 44.9536l385.536 385.536c11.776 11.776 28.3648 18.944 44.9536 18.944s33.0752-7.0656 44.9536-18.944l385.536-385.536c11.776-11.776 18.944-28.3648 18.944-44.9536-0.2048-16.5888-7.2704-33.0752-19.0464-44.9536z" fill="#F4511E" p-id="8094"></path></svg>
