<?xml version="1.0" encoding="UTF-8"?>
<svg t="1621393805123" class="icon" viewBox="0 0 1024 1024" version="1.1" xmlns="http://www.w3.org/2000/svg" p-id="2444"
     width="48" height="48">
    <path d="M866.986667 686.08c0 34.133333-17.066667 40.96-17.066667 40.96s-300.373333 174.08-320.853333 184.32c-20.48 6.826667-30.72 0-30.72 0S184.32 727.04 170.666667 720.213333c-10.24-6.826667-10.24-20.48-10.24-20.48V320.853333c0-17.066667 20.48-30.72 20.48-30.72l314.026666-180.906666c20.48-10.24 37.546667 0 37.546667 0s279.893333 160.426667 310.613333 180.906666c30.72 13.653333 27.306667 44.373333 27.306667 44.373334s-3.413333 320.853333-3.413333 351.573333zM740.693333 324.266667c-64.853333-37.546667-215.04-126.293333-215.04-126.293334s-13.653333-6.826667-30.72 0L245.76 341.333333s-17.066667 10.24-17.066667 23.893334v296.96s0 10.24 10.24 17.066666 256 150.186667 256 150.186667 10.24 6.826667 23.893334 0c17.066667-10.24 252.586667-143.36 252.586666-143.36s13.653333-6.826667 13.653334-30.72V580.266667l-279.893334 167.253333V682.666667c0-27.306667 20.48-44.373333 20.48-44.373334l245.76-150.186666c10.24-10.24 10.24-23.893333 10.24-30.72v-64.853334l-279.893333 167.253334v-68.266667c0-27.306667 17.066667-37.546667 17.066667-37.546667l221.866666-129.706666z"
          p-id="2445" fill="#BFBFBF"></path>
</svg>
