<?xml version="1.0" standalone="no"?><!DOCTYPE svg PUBLIC "-//W3C//DTD SVG 1.1//EN"
        "http://www.w3.org/Graphics/SVG/1.1/DTD/svg11.dtd">
<svg t="1621392766421" class="icon" viewBox="0 0 1054 1024" version="1.1" xmlns="http://www.w3.org/2000/svg" p-id="1512"
     width="48" height="48">
    <path d="M527.998733 2.610693c9.900356 0.182495 38.683881 10.762139 38.683881 10.762139l355.682851 171.261465s21.706772 11.101782 26.725386 17.970693c5.018614 6.868911 9.530297 32.676752 9.530298 32.676753l86.076831 377.105742s6.94495 21.57497 4.334258 42.632871c-2.088554 8.77497-19.410376 30.456396-19.410377 30.456396l-250.773544 314.51501s-8.77497 13.058535-16.612119 18.28499c-5.434297 3.685386-26.32998 2.610693-26.32998 2.610694H320.010139s-18.442139 2.615762-23.668594-2.610694c-5.221386-2.610693-13.058535-13.063604-13.058535-13.063603L19.445861 677.016079l-7.289663-11.289346-5.221386-10.447842c-3.736079-7.441743-1.439683-17.266059-1.439683-17.266059l2.772911-12.171406 92.109307-403.618218s4.070653-16.434693 8.171722-21.58004c4.101069-5.145347 21.078178-14.052119 21.078179-14.052118L491.712634 12.227168s27.06503-9.616475 36.286099-9.616475z m-0.760396 133.880396c-11.542812 0-20.895683 12.277861-20.895684 27.424951 0 19.592871 4.227802 22.228911 5.221387 48.325703 0.36499 9.226139 0 23.511446-10.442773 36.575049v1.201426a281.518891 281.518891 0 0 0-178.971881 87.141386 71.233901 71.233901 0 0 1-33.356039-14.315723c-19.800713-17.083564-19.197465-21.990653-34.532119-34.217822-11.836832-9.428911-27.272871-9.793901-34.456079-0.760396-7.183208 9.043644-3.421782 24.058931 8.415049 33.619644 15.304238 12.227168 20.008554 10.452911 41.03604 26.127208 7.183208 5.221386 17.63105 14.077465 21.681425 29.412119a280.687525 280.687525 0 0 0-45.821465 154.122138c0.010139 12.810139 0.882059 25.6 2.615762 38.293545a70.970297 70.970297 0 0 1-31.505742 16.718574c-25.67604 4.83105-29.178931 1.307881-48.27501 5.642139-14.787168 3.188594-24.712871 15.020356-22.102178 26.279287 2.615762 11.258931 16.642535 17.63105 31.348594 14.26503 19.096079-4.359604 20.713188-9.063921 45.948198-15.831446 8.440396-2.27105 21.372198-4.912158 35.47501 0.912475a282.958574 282.958574 0 0 0 122.981386 155.196832l-1.404198 2.610693a71.68 71.68 0 0 1-6.453228 37.487525c-12.252515 23.090693-17.18495 23.506376-25.681109 41.269227-6.554614 13.636436-3.472475 28.737901 6.924673 33.776793 10.397149 5.04396 24.165386-1.982099 30.745347-15.674297 8.491089-17.656396 5.829703-21.833505 16.247129-45.816397 3.685386-8.465743 10.214653-21.159287 25.285703-28.393188l1.201425-2.742495a282.933228 282.933228 0 0 0 200.987882-1.333227 70.529267 70.529267 0 0 1 21.20998 25.498613c10.452911 23.977822 7.837149 28.154931 16.247128 45.816396 6.58503 13.636436 20.353267 20.632079 30.750416 15.674298 10.392079-4.967921 13.479287-20.145426 6.919604-33.776793-8.516436-17.661465-13.453941-18.290059-25.676039-41.274297a54.231446 54.231446 0 0 1-7.31501-32.494257 282.907881 282.907881 0 0 0 123.873584-154.857188h0.126733a71.365703 71.365703 0 0 1 37.984316-2.063208c25.23501 6.792871 26.852119 11.492119 45.948198 15.831445 14.761822 3.36602 28.732832-3.006099 31.348595-14.265029 2.610693-11.253861-7.264317-22.96396-22.02107-26.304634-19.096079-4.359604-22.593901-0.836436-48.27501-5.667485-9.089267-1.698218-22.933545-5.221386-33.330693-18.28499h-0.238257c1.561347-12.130851 2.347089-24.342812 2.352158-36.57505a280.814257 280.814257 0 0 0-46.054653-154.720316l0.446099-0.314297a71.365703 71.365703 0 0 1 22.102178-30.877149c21.027485-15.491802 25.701386-13.818931 41.03604-26.122139 11.831762-9.454257 15.674297-24.423921 8.415049-33.437148-7.264317-9.013228-22.654733-8.698931-34.486495 0.760396-15.309307 12.222099-14.731406 17.159604-34.532119 34.217822-6.975366 6.032475-18.28499 14.655366-35.11002 14.630019l-0.36499 0.339644a281.31105 281.31105 0 0 0-177.451089-85.524277v-1.201426a71.629307 71.629307 0 0 1-10.447841-36.575049c0.993584-26.122139 5.221386-28.732832 5.221386-48.325703 0-15.147089-9.347802-27.42495-20.895683-27.424951z m9.79897 495.854258c15.253545 20.348198 42.658218 67.213941 65.013861 110.44499a224.651406 224.651406 0 0 1-74.812831 12.8c-25.072792 0-49.973228-4.192317-73.662099-12.409664 23.506376-45.740356 51.169584-93.229624 67.497821-110.576792a96.529743 96.529743 0 0 0 15.963248-0.258534z m-93.858218-43.859644c2.387644 3.528238 5.003406 6.894257 7.837149 10.082851-2.585347 18.102495-23.04 72.617822-44.645387 121.703921A225.122851 225.122851 0 0 1 315.46297 605.934257c47.935366-9.925703 100.757545-17.945347 127.716119-17.448554z m295.859961 17.342099a225.28 225.28 0 0 1-90.253941 113.998574c-20.216396-44.173941-39.834614-93.701069-45.816396-120.761029a101.877861 101.877861 0 0 0 8.202138-10.447842c21.889267-0.370059 77.585743 7.416396 127.868199 17.210297z m-195.264634-109.319604l21.367129 25.574653-6.554614 32.783208-29.70107 15.126812-30.380356-13.768237-8.151446-32.316832 20.196119-26.537822 33.224238-0.861782zM335.709782 413.386772c38.192158 31.81497 77.793584 68.572515 93.518574 89.650693a103.160396 103.160396 0 0 0-2.610693 12.43501c-21.422891 10.108198-74.189307 26.852119-122.621465 39.469624a229.59905 229.59905 0 0 1-1.409267-24.003168 223.637545 223.637545 0 0 1 33.122851-117.557228z m382.666772-0.65394a223.536158 223.536158 0 0 1 33.518258 118.206099c-0.005069 6.392396-0.278812 12.784792-0.821228 19.151841l-0.461307 4.760079-2.752633-0.694495c-47.732594-12.130851-97.913663-27.815287-119.970218-39.677465a100.443248 100.443248 0 0 0-2.798258-12.252515c12.87604-17.032871 53.947564-56.005703 93.285386-89.493544zM501.268277 307.823525l0.00507-0.101386c-1.176079 50.388911-5.40895 104.488554-12.303208 128.704633-4.836119 1.97703-9.51002 4.339327-13.97608 7.051406-21.184634-10.447842-66.975683-41.061386-106.967445-71.000713a223.921426 223.921426 0 0 1 130.281188-64.28895l2.960475-0.36499z m52.355802 0.050693a224.027881 224.027881 0 0 1 132.126416 63.873267c-39.809267 30.299248-84.505347 60.654257-108.016792 70.716832a104.853545 104.853545 0 0 0-12.171406-5.931089c-5.226455-20.089663-10.24-76.698614-11.938218-128.65901z"
          fill="#BFBFBF" p-id="1513"></path>
</svg>
