<?xml version="1.0" standalone="no"?><!DOCTYPE svg PUBLIC "-//W3C//DTD SVG 1.1//EN"
        "http://www.w3.org/Graphics/SVG/1.1/DTD/svg11.dtd">
<svg t="1592727071124" class="icon" viewBox="0 0 1024 1024" version="1.1" xmlns="http://www.w3.org/2000/svg" p-id="4983"
     width="48" height="48">
    <path d="M20.48 0h983.04a20.48 20.48 0 0 1 20.48 20.48v983.04a20.48 20.48 0 0 1-20.48 20.48H20.48a20.48 20.48 0 0 1-20.48-20.48V20.48a20.48 20.48 0 0 1 20.48-20.48z m245.15584 432.47872c1.3184-11.79392-1.88928-22.03136-9.61792-30.70976-11.5968-13.0176-34.60608-42.3296-46.4-91.2768-14.94272-60.06528-43.968-97.8944-70.90944-130.98496-10.6496-22.6304-12.3008-35.56608-4.95616-38.80704 5.45792-4.8896 14.45632-4.8896 26.99264 0 18.80064 7.3344 76.40576 32.50688 89.14432 52.0448 4.97664 0.48896 61.26336-2.01472 91.40736 13.43744 30.144 15.45216 152.6784 72.128 233.30816 226.29632 48.29184 100.19328 72.08448 181.50912 90.9184 196.8 12.55424 10.19136 27.24352 16.5888 44.06528 19.18208 26.84416 8.9856 42.2912 14.6048 46.34112 16.86272 6.07232 3.38688 58.24 39.58784 66.66752 45.9008 8.42752 6.31552 34.57792 23.2192 34.57792 26.32704 0 2.0736-2.79296 3.10016-8.38144 3.07968-52.62848 1.58976-91.87072 9.38496-117.7216 23.3856-6.59712 4.8128-6.59712 11.26656 0 19.36384 14.04672 28.0448 27.52768 44.90496 40.448 50.5856 19.37408 8.51712 54.44096 33.55136 72.86528 41.7408 18.42432 8.192 31.61856 15.30368 76.32896 50.23488 4.45184-1.60768-1.4848-12.0192-17.80992-31.23456-24.40448-30.5664-52.4032-55.57248-83.99872-75.01056-19.23072-13.4272-40.192-20.11136-43.79136-32.2048-2.67264-5.89568 0.40448-8.25088 7.04512-8.25088 6.6432 0 43.83232-10.17344 49.344-10.17344 5.51168 0 39.80032-4.2112 48.4224-8.82944 8.61952-4.61568 15.8976-5.77536 14.4128-10.21696-5.79328-4.30848-11.97056-15.49312-14.4128-19.29472-6.87872-5.71904-80.25088-86.15936-176.73216-116.39808-13.248-14.98112-11.28448-8.16384-26.688-41.8048-15.40608-33.64352-55.45728-115.80928-74.49088-167.6544-19.03104-51.85024-170.73408-214.64576-253.5552-234.4192-23.86688-6.65344-49.85088-9.31328-77.95712-7.98208-43.94752-36.98688-82.7648-55.48032-116.45952-55.48032-33.69216 0-51.3408 16.63488-52.9408 49.90464 11.64288 33.88416 27.008 60.57472 46.0928 80.07168 13.58336 15.26528 22.70976 34.01472 27.3792 56.24832 14.95808 47.89248 24.5376 74.19392 28.74112 78.8992 6.30272 7.06048 25.40032 45.824 31.32416 48.92928 5.9264 3.10272 9.69728 9.04704 4.84864 15.81824-4.84864 6.76864-55.65696 141.16864 10.40128 238.57408 14.30272 20.51328 32.4864 29.12256 54.5536 25.83296 13.12512-7.53152 19.6864-16.14336 19.6864-25.8304 0-14.53568 8.65792-49.7024 8.65792-55.40608 0-5.70112 7.30624 3.2512 11.48928 15.84128 4.18304 12.59008 22.6816 42.51136 28.46208 48.448 3.8528 3.95776 13.99296 14.15168 30.4128 30.58688l65.92 57.9328c-65.088-79.00928-110.5152-153.5616-136.28416-223.65696-13.0048 2.10688-35.21536 48.43008-35.21536 53.77024 0 5.34016-6.55104 62.37184-6.55104 62.37184s-9.6384 11.5712-25.38496-16.86272c-15.744-28.43136-27.9808-108.71808-21.8624-131.9936 4.07552-15.52128 11.3664-43.51744 21.8624-83.98848z m0.55552-180.9024c20.8128 27.00288 31.22176 43.4432 31.22176 49.32608 0 8.8192 14.1824-12.29824 14.1824-20.60288 0-8.30464-15.0912-31.232-18.89536-31.232h-21.49632l-5.01248 2.5088z"
          fill="#bfbfbf" p-id="4984"></path>
</svg>