<?xml version="1.0" standalone="no"?><!DOCTYPE svg PUBLIC "-//W3C//DTD SVG 1.1//EN"
        "http://www.w3.org/Graphics/SVG/1.1/DTD/svg11.dtd">
<svg t="1626769216252" class="icon" viewBox="0 0 1024 1024" version="1.1" xmlns="http://www.w3.org/2000/svg" p-id="6364" width="48" height="48"><path d="M512 512m-512 0a512 512 0 1 0 1024 0 512 512 0 1 0-1024 0Z" fill="#BAE7FF" p-id="6365"></path><path d="M955.392 602.624l-75.946667-330.794667a58.026667 58.026667 0 0 0-32-39.765333L539.306667 85.205333a59.989333 59.989333 0 0 0-51.072 0L179.626667 232.490667a59.221333 59.221333 0 0 0-31.914667 39.722666L71.68 602.624c-3.626667 15.36-0.810667 31.573333 7.765333 44.8l3.541334 4.693333 213.12 265.386667c11.264 13.781333 28.16 21.802667 45.994666 21.76h342.101334c17.792-0.042667 34.645333-8.064 45.994666-21.76l213.12-265.386667c11.264-13.994667 15.573333-32.341333 11.690667-49.877333l0.426667 0.426667z" fill="#008BDB" p-id="6366"></path><path d="M507.776 191.701333c11.008 0 20.096 9.258667 21.418667 21.248l0.085333 0.768h0.085333l-0.042666 0.341334 0.042666 1.877333a26.453333 26.453333 0 0 1-2.432 11.306667l-0.853333 4.992c-2.346667 14.72-4.778667 34.346667-2.901333 43.221333 0.512 2.432 4.053333 7.722667 5.546666 9.898667l0.64 0.938666h0.085334l0.981333 9.386667c52.906667 5.205333 102.4 28.373333 140.288 65.621333l1.578667 1.578667 0.128 0.128 8.789333-6.186667 26.88 33.749334-7.253333 7.125333a232.277333 232.277333 0 0 1 38.314666 149.504l-0.298666 3.285333 8.576 2.517334-9.642667 42.069333-7.68-0.938667a232.789333 232.789333 0 0 1-94.933333 126.848l-1.834667 1.194667 2.048 4.864-38.912 18.730667-2.133333-3.413334a232.448 232.448 0 0 1-161.578667 4.181334l-2.133333-0.725334-1.237334 2.218667h0.042667l-1.578667 0.981333a47.488 47.488 0 0 0-7.893333 5.674667l-0.213333 0.256c-6.272 8.149333-13.781333 31.061333-18.176 45.653333a26.624 26.624 0 0 1-3.626667 12.672v0.170667h-0.085333c-6.272 10.666667-18.773333 15.274667-28.928 10.453333-9.898667-4.736-14.08-17.024-10.069334-28.373333l0.298667-0.725333-0.085333-0.085334 0.213333-0.256a26.453333 26.453333 0 0 1 7.850667-10.794666l2.901333-4.138667c8.533333-12.245333 19.2-28.885333 21.376-37.674667 0.682667-2.645333-0.426667-9.898667-0.768-11.946666l-0.085333-0.512 26.581333 12.8-26.624-12.842667 0.597333-1.706667A232.106667 232.106667 0 0 1 287.914667 601.6l-0.64-1.962667-2.730667 0.426667-9.6-42.069333 2.602667-0.853334a232.021333 232.021333 0 0 1 35.456-156.842666l1.194666-1.792-4.352-3.925334 26.922667-33.706666 5.205333 3.328a231.552 231.552 0 0 1 141.653334-68.394667l2.133333-0.213333 0.512-9.344 0.981333-1.536c1.450667-2.261333 3.968-6.4 4.650667-8.533334l0.085333-0.384c2.133333-10.026667-1.066667-33.92-3.498666-48.981333a26.624 26.624 0 0 1-2.304-10.922667v-1.024l0.085333-1.024v-0.170666c1.024-12.373333 10.24-22.016 21.504-22.016z m88.746667 554.069334l38.912-18.645334-0.298667 2.261334a40.234667 40.234667 0 0 0-0.384 9.6c2.474667 9.984 15.701333 30.122667 24.362667 42.666666a26.624 26.624 0 0 1 6.826666 8.789334l0.426667 0.938666 0.426667 0.981334 0.085333 0.128h-0.042667c4.437333 11.52 0.298667 24.234667-9.813333 29.098666-9.941333 4.778667-22.144 0.384-28.501333-9.813333l-0.426667-0.682667-0.085333 0.042667-0.085334-0.341333a26.538667 26.538667 0 0 1-3.541333-12.885334l-1.024-3.498666c-4.266667-14.464-10.794667-34.133333-16.512-41.557334a41.472 41.472 0 0 0-8.96-6.314666l-1.322667-0.768z m-87.381334-141.952l-56.32 101.888a186.88 186.88 0 0 0 115.114667-1.706667l2.346667-0.768-61.141334-99.413333z m-62.037333-31.317334l-114.688 19.498667a187.733333 187.733333 0 0 0 72.661333 91.178667l1.706667 1.152 40.32-111.829334z m125.226667 2.261334l43.392 104.917333a187.093333 187.093333 0 0 0 67.925333-88.917333l0.810667-2.261334-112.128-13.738666z m-297.386667-16.64l9.557333 42.026666-1.834666-0.682666a41.813333 41.813333 0 0 0-9.6-2.56c-10.24 0.170667-32.853333 8.576-47.018667 14.250666a26.453333 26.453333 0 0 1-10.112 4.693334l-0.981333 0.213333-1.024 0.170667-0.170667 0.042666c-12.288 1.706667-23.722667-5.12-26.24-16.085333-2.432-10.752 4.565333-21.632 15.914667-25.6l0.768-0.256v-0.085333h0.341333a27.306667 27.306667 0 0 1 13.354667-0.597334l3.754666-0.213333c15.018667-0.938667 35.626667-2.944 44.074667-6.869333a37.632 37.632 0 0 0 7.594667-6.656l1.621333-1.792z m462.890667 36.864l9.6-42.026667 1.706666 1.749333a39.466667 39.466667 0 0 0 7.168 6.144c9.344 4.309333 33.322667 6.528 48.554667 7.552a26.666667 26.666667 0 0 1 11.136 0.213334l1.024 0.256 0.981333 0.256h0.170667v0.085333c11.818667 3.712 19.114667 14.890667 16.64 25.856-2.517333 10.709333-13.525333 17.493333-25.514667 16.128l-0.768-0.085333v0.085333l-0.341333-0.128a26.624 26.624 0 0 1-12.288-5.290667l-3.456-1.408c-13.952-5.674667-33.365333-12.842667-42.666667-12.970666-2.56-0.085333-9.002667 2.389333-11.221333 3.285333l-0.725333 0.298667z m-209.578667-107.946667h-35.285333l-22.016 27.562667 7.850666 34.432 31.786667 15.317333 31.786667-15.317333 7.850666-34.389334-21.973333-27.605333z m-179.882667-58.026667a186.154667 186.154667 0 0 0-27.264 110.165334l0.256 3.114666 111.445334-37.845333-84.48-75.477333z m319.573334 0.938667l-78.933334 77.354667 105.557334 30.464a186.24 186.24 0 0 0-25.6-105.941334l-1.066667-1.877333zM535.168 341.76l11.434667 110.421333 88.32-62.592a186.453333 186.453333 0 0 0-97.706667-47.530666l-2.048-0.298667zM483.242667 341.333333a186.496 186.496 0 0 0-100.693334 46.506667l-1.536 1.408 96.085334 61.653333L483.242667 341.333333z m-233.941334-22.485333c6.869333-8.576 19.754667-9.941333 29.909334-3.541333l0.725333 0.426666 0.042667-0.042666 0.256 0.256c0.469333 0.426667 0.981333 0.725333 1.493333 1.152a26.453333 26.453333 0 0 1 7.253333 8.96l2.517334 2.773333c10.112 11.178667 24.490667 26.026667 32.853333 30.165333 2.218667 1.152 8.533333 1.706667 11.178667 1.877334l1.152 0.085333-26.88 33.706667-0.768-2.346667a39.637333 39.637333 0 0 0-3.797334-8.618667c-6.528-7.936-27.178667-20.352-40.448-27.861333a26.752 26.752 0 0 1-9.941333-4.992l-0.810667-0.682667-0.768-0.682666-0.170666-0.085334c-8.96-8.533333-10.794667-21.76-3.797334-30.549333z m488.704-7.253333c10.24-6.869333 23.552-5.674667 30.592 3.157333 6.826667 8.576 5.248 21.418667-3.242666 29.909333l-0.597334 0.597334 0.085334 0.085333-0.341334 0.128a26.581333 26.581333 0 0 1-11.776 6.314667l-3.285333 1.834666c-13.141333 7.381333-30.848 18.090667-36.736 25.301334a43.392 43.392 0 0 0-4.309333 10.496l-0.341334 1.066666-26.88-33.706666 2.005334-0.213334a41.941333 41.941333 0 0 0 9.728-1.792c9.216-4.608 25.898667-21.973333 36.181333-33.28a26.581333 26.581333 0 0 1 8.192-9.386666l0.597333-0.426667 0.128-0.085333z" fill="#FFFFFF" p-id="6367"></path></svg>
