<?xml version="1.0" standalone="no"?><!DOCTYPE svg PUBLIC "-//W3C//DTD SVG 1.1//EN" "http://www.w3.org/Graphics/SVG/1.1/DTD/svg11.dtd"><svg t="1592634427658" class="icon" viewBox="0 0 1025 1024" version="1.1" xmlns="http://www.w3.org/2000/svg" p-id="22088" xmlns:xlink="http://www.w3.org/1999/xlink" width="80.078125" height="80"><defs><style type="text/css"></style></defs><path d="M512 512m-512 0a512 512 0 1 0 1024 0 512 512 0 1 0-1024 0Z" fill="#FF7A83" p-id="22089"></path><path d="M1020.540541 560.432432L556.972973 133.189189c32.864865 55.351351-51.891892 128-112.432432 160.864865l-20.756757 41.513514 50.162162 117.621621 32.864865 34.594595 41.513513 25.945946 96.864865-13.837838-159.135135 38.054054h-77.837838l-34.594594 36.324324 57.081081 34.594595-39.783784 48.432432v15.567568h-81.297297l-62.270271 25.945946 10.378379 27.675675 358.054054 285.405406A512 512 0 0 0 1020.540541 560.432432z" fill="#ED6069" p-id="22090"></path><path d="M669.405405 250.810811c-19.027027 13.837838-39.783784 25.945946-60.54054 43.243243s-44.972973 31.135135-46.702703 55.351351 53.621622 70.918919 24.216216 117.621622c-12.108108 17.297297-31.135135 25.945946-55.351351 36.324324s6.918919-10.378378 10.378378-15.567567c38.054054-55.351351-39.783784-72.648649-29.405405-140.108108s84.756757-86.486486 157.405405-96.864865z" fill="#FFFFFF" p-id="22091"></path><path d="M428.972973 475.675676c-17.297297 8.648649-46.702703 10.378378-60.540541 27.675675a91.675676 91.675676 0 0 0 50.162163 10.378379 1160.648649 1160.648649 0 0 0 226.594594-13.837838c1.72973 5.189189-8.648649 12.108108-15.567567 17.297297-39.783784 29.405405-162.594595 36.324324-245.621622 31.135135-27.675676-1.72973-93.405405-8.648649-93.405405-34.594594s77.837838-34.594595 110.702702-36.324325a122.810811 122.810811 0 0 1 27.675676-1.729729zM392.648649 553.513514c8.648649 1.72973-5.189189 5.189189-3.45946 12.108108 29.405405 29.405405 122.810811 20.756757 167.783784 12.108108a129.72973 129.72973 0 0 1 25.945946-6.918919c17.297297 1.72973 27.675676 20.756757 43.243243 24.216216-51.891892 24.216216-153.945946 34.594595-228.324324 20.756757-19.027027-3.459459-51.891892-13.837838-53.621622-29.405406s32.864865-29.405405 48.432433-32.864864z m22.486486 70.918918c5.189189 1.72973-1.72973 5.189189-1.72973 6.918919s93.405405 17.297297 133.18919 8.648649c8.648649-1.72973 15.567568-6.918919 22.486486-6.918919s27.675676 22.486486 44.972973 25.945946c-55.351351 32.864865-188.540541 46.702703-243.891892 5.189189-1.72973-31.135135 22.486486-34.594595 44.972973-39.783784z" fill="#FFFFFF" p-id="22092"></path><path d="M364.972973 676.324324c-15.567568 3.459459-58.810811-1.72973-60.540541 20.756757s13.837838 19.027027 24.216217 22.486487c57.081081 20.756757 169.513514 24.216216 262.918919 13.837837 43.243243-5.189189 124.540541-19.027027 114.162162-64a27.675676 27.675676 0 0 1 25.945946 22.486487c5.189189 48.432432-103.783784 67.459459-148.756757 72.648649-96.864865 10.378378-216.216216 8.648649-290.594595-17.297298-24.216216-8.648649-53.621622-24.216216-51.891892-46.702702s95.135135-50.162162 124.540541-24.216217z" fill="#FFFFFF" p-id="22093"></path><path d="M512 819.891892a619.243243 619.243243 0 0 1-179.891892-39.783784c136.648649 32.864865 337.297297 31.135135 434.162162-39.783784 5.189189-3.459459 10.378378-10.378378 17.297298-10.378378-24.216216 72.648649-117.621622 77.837838-197.18919 89.945946h-74.378378zM556.972973 133.189189a77.837838 77.837838 0 0 1 20.756757 55.351352c0 67.459459-70.918919 105.513514-105.513514 150.486486a72.648649 72.648649 0 0 0-17.297297 41.513514c0 36.324324 38.054054 77.837838 51.891892 107.243243a340.756757 340.756757 0 0 1-74.378379-62.27027c-20.756757-24.216216-41.513514-65.72973-22.486486-100.324325s112.432432-83.027027 143.567568-140.108108a55.351351 55.351351 0 0 0 3.459459-51.891892zM659.027027 492.972973c36.324324-31.135135 95.135135-19.027027 98.594595 32.864865s-62.27027 93.405405-110.702703 96.864865c22.486486-20.756757 81.297297-55.351351 69.189189-103.783784-5.189189-19.027027-29.405405-31.135135-57.081081-25.945946z" fill="#FFFFFF" p-id="22094"></path></svg>