<?xml version="1.0" standalone="no"?><!DOCTYPE svg PUBLIC "-//W3C//DTD SVG 1.1//EN" "http://www.w3.org/Graphics/SVG/1.1/DTD/svg11.dtd"><svg t="1592634278263" class="icon" viewBox="0 0 1024 1024" version="1.1" xmlns="http://www.w3.org/2000/svg" p-id="16455" xmlns:xlink="http://www.w3.org/1999/xlink" width="80" height="80"><defs><style type="text/css"></style></defs><path d="M947.2 399.36c-20.48-81.92-66.56-128-128-128h-56.32V184.32c0-66.56-51.2-122.88-128-133.12C563.2 40.96 496.64 35.84 414.72 51.2 307.2 71.68 286.72 117.76 286.72 184.32v81.92h-51.2c-76.8 0-138.24 51.2-158.72 128-20.48 87.04-20.48 143.36 0 225.28 20.48 81.92 66.56 128 138.24 128h46.08v81.92c0 61.44 46.08 107.52 122.88 133.12 40.96 10.24 76.8 15.36 112.64 15.36s71.68-5.12 112.64-15.36c102.4-30.72 122.88-87.04 122.88-133.12v-81.92h81.92c81.92 0 107.52-61.44 128-122.88 25.6-66.56 25.6-138.24 5.12-225.28zM261.12 696.32h-46.08c-46.08 0-71.68-30.72-87.04-87.04-20.48-76.8-20.48-122.88 0-204.8 15.36-56.32 51.2-87.04 107.52-87.04h291.84c15.36 0 25.6-10.24 25.6-25.6s-10.24-25.6-25.6-25.6H343.04V184.32c0-46.08 5.12-71.68 81.92-81.92 71.68-10.24 138.24-10.24 204.8 0 40.96 5.12 81.92 35.84 81.92 81.92v199.68c0 46.08-35.84 81.92-81.92 81.92H419.84c-87.04 0-158.72 71.68-158.72 158.72v71.68z m634.88-87.04c-25.6 71.68-40.96 92.16-81.92 92.16H496.64c-15.36 0-25.6 10.24-25.6 25.6s10.24 25.6 25.6 25.6h184.32v81.92c0 35.84-30.72 66.56-87.04 81.92-66.56 20.48-128 20.48-194.56 0-40.96-10.24-87.04-35.84-87.04-81.92v-204.8c0-56.32 51.2-107.52 107.52-107.52h209.92c71.68 0 133.12-61.44 133.12-133.12V322.56H819.2c25.6 0 61.44 10.24 81.92 87.04 15.36 81.92 15.36 143.36-5.12 199.68z" fill="#070606" p-id="16456"></path><path d="M599.04 128c-25.6-5.12-56.32-5.12-81.92-5.12s-56.32 0-81.92 5.12c-40.96 5.12-56.32 10.24-66.56 25.6-5.12 15.36-5.12 40.96-5.12 56.32v15.36h163.84c35.84 0 66.56 30.72 66.56 66.56S558.08 358.4 522.24 358.4h-307.2c-25.6 0-40.96 15.36-51.2 40.96-20.48 71.68-20.48 148.48 0 225.28 0 0 10.24 46.08 66.56 40.96v-76.8c0-81.92 66.56-143.36 143.36-143.36H599.04c46.08 0 81.92-35.84 76.8-81.92v-153.6c5.12-40.96-30.72-71.68-76.8-81.92zM419.84 204.8c-15.36 0-25.6-10.24-25.6-25.6s10.24-25.6 25.6-25.6 25.6 10.24 25.6 25.6-10.24 25.6-25.6 25.6z" fill="#3573A6" p-id="16457"></path><path d="M860.16 399.36s-10.24-46.08-66.56-40.96v56.32c0 81.92-66.56 143.36-143.36 143.36H424.96c-46.08 0-81.92 35.84-76.8 81.92v168.96c0 40.96 35.84 76.8 76.8 81.92 25.6 5.12 56.32 5.12 81.92 5.12s51.2 0 76.8-5.12c66.56-10.24 76.8-35.84 76.8-81.92v-15.36H501.76c-35.84 0-66.56-30.72-66.56-66.56s30.72-66.56 66.56-66.56h312.32c25.6 0 40.96-15.36 51.2-40.96 20.48-71.68 15.36-148.48-5.12-220.16z m-261.12 409.6c15.36 0 25.6 10.24 25.6 25.6s-10.24 25.6-25.6 25.6-25.6-10.24-25.6-25.6 10.24-25.6 25.6-25.6z" fill="#FEB72B" p-id="16458"></path></svg>