<?xml version="1.0" standalone="no"?><!DOCTYPE svg PUBLIC "-//W3C//DTD SVG 1.1//EN" "http://www.w3.org/Graphics/SVG/1.1/DTD/svg11.dtd"><svg t="1595727231216" class="icon" viewBox="0 0 1024 1024" version="1.1" xmlns="http://www.w3.org/2000/svg" p-id="5217" width="80" height="80" xmlns:xlink="http://www.w3.org/1999/xlink"><defs><style type="text/css"></style></defs><path d="M800.04398925 738.265625c8.17382813-17.578125 11.953125-42.1875 11.95312501-76.27148438 0-121.74609375-56.09179688-191.98828125-101.14453125-248.43164062-27.28125-34.18945313-48.84960938-61.18945313-48.84960937-89.06835937v-8.7890625c0.28125-51.75 0.89648438-159.50390625-56.25-217.03710938C581.477583 74.3046875 549.96000488 62 511.99125489 62c-78.76757813 0-131.23828125 38.26757813-131.23828125 225 0 51.3984375-21.63867188 93.49804688-44.52539063 138.05859375-10.01953125 19.546875-20.40820313 39.76171875-29.109375 61.11914062C289.80375489 528.76953125 249.49711425 633.0078125 249.49711425 680.75a18.80859375 18.80859375 0 0 0 2.14453126 8.7890625l132.71484374 253.125a18.80859375 18.80859375 0 0 0 14.39648439 9.75585938 18.80859375 18.80859375 0 0 0 16.3828125-6.20507813c8.33203125-9.28125 63.5625-21.5859375 96.85546874-21.5859375h127.21289063a18.80859375 18.80859375 0 0 0 13.078125-5.2734375l154.03710938-150.01171875a18.75585938 18.75585938 0 0 0-6.27539064-30.91992188z" fill="#1A1A1A" p-id="5218"></path><path d="M666.85453614 692.43945313c-0.45703125-91.30078125-12.8671875-193.9921875-85.00781251-341.47265626C546.14555176 375.11914062 480.61430176 394.2265625 472.73930175 394.2265625c-14.203125 0-45.19335938-10.14257813-67.97460937-30.234375-9.3515625 27.61523438-22.30664063 53.19140625-35.15625 78.22265625-9.66796875 18.80859375-19.65234375 38.26757813-27.72070313 58.11328125C319.211958 555.9453125 293.31937989 629.29882813 288.16898925 668.25195313c15.8203125 10.546875 26.9296875 33.3984375 39.14648439 59.00976562 12.65625 26.47265625 26.98242188 56.47851563 45.45703125 69.36328125 33.8203125 23.53710938 51.34570313 57.11132813 55.93359375 87.609375 12.8671875 1.28320313 29.09179688 2.390625 47.4609375 2.390625 45.703125 0 107.75390625-9.28125 153.65039061-37.125 2.54882813-49.60546875 11.26757813-129.1640625 37.03710938-157.06054688z" fill="#FFFFFF" p-id="5219"></path><path d="M846.73148926 777.2890625c-7.76953125-5.09765625-15.8203125-10.37109375-21.48046876-16.04882813-3.3046875-3.3046875-1.7578125-18.6328125-0.984375-26.87695312 1.546875-15.8203125 3.1640625-32.15039063-7.47070312-43.9453125-4.0078125-4.4296875-11.37304688-9.72070313-23.5546875-9.72070313-10.01953125 0-17.34960938 7.9453125-17.7890625 17.96484376 0 0.26367188 0.10546875 0.50976563 0.10546875 0.79101562H699.49711425A18.73828125 18.73828125 0 0 0 680.74125489 680.75c-55.59960938 0-56.25 204.1875-56.4609375 208.65234375-1.0546875 11.1796875-3.515625 37.42382813 13.2890625 55.84570313 10.125 11.109375 24.609375 16.75195313 43.171875 16.75195312 48.67382813 0 72.28125-25.08398438 95.09765624-49.32421875 3.83203125-4.11328125 7.76953125-8.27929688 11.91796875-12.41015625 9.4921875-9.50976563 28.125-16.29492188 44.49023437-22.27148438 26.91210938-9.84375 54.75585938-20.00390625 54.75585938-47.24999999s-22.27148438-41.6953125-40.27148438-53.45507813zM372.70219239 796.625c-18.47460938-12.88476563-32.80078125-42.890625-45.45703125-69.36328125-16.734375-35.015625-31.20117188-65.26757813-58.9921875-65.26757813-35.15625 0-42.76757813 31.53515625-46.86328125 48.48046876-1.14257813 4.65820313-2.84765625 11.68945313-3.0234375 12.515625-2.77734375 1.7578125-13.25390625 3.796875-20.1796875 5.16796875C175.29984863 732.69335938 136.99711425 740.26953125 136.99711425 774.49414063a142.8046875 142.8046875 0 0 0 3.11132814 27.22851562C143.00883301 817.33203125 145.78617675 832.04492188 137.5947705 863.5625a18.28125 18.28125 0 0 0-0.59765624 4.69335938c0 45.0703125 70.01367188 50.9765625 111.8671875 54.38671874 7.03125 0.59765625 12.74414063 1.03710938 16.453125 1.6171875 5.765625 0.9140625 17.859375 6.48632813 29.53125 11.86523438C319.80961425 947.65625 350.95805175 962 380.75297363 962c21.41015625 0 38.54882813-13.8515625 45.84375001-37.01953125 11.33789063-36.12304688-3.67382813-93.41015625-53.89453125-128.35546875z" fill="#FDB515" p-id="5220"></path><path d="M793.24125488 643.25585938a18.140625 18.140625 0 0 0-9.59765625 3.02343749l-125.20898438-204.87304687a1001.953125 1001.953125 0 0 0-54.7734375-125.49023437 18.73828125 18.73828125 0 1 0-33.3984375 17.17382812c84.65625 164.49609375 91.66992188 267.1875 91.70507813 365.36132813-0.22851563 3.9375-1.56445313 39.05859375 18.6328125 60.43359375a50.36132813 50.36132813 0 0 0 37.58203125 15.609375h12.99023437c19.07226563 0 39.69140625-1.45898438 55.81054688-17.45507813 17.33203125-17.015625 25.01367188-46.40625 25.01367187-95.04492188a18.73828125 18.73828125 0 0 0-18.75585937-18.73828124z" fill="#1A1A1A" p-id="5221"></path><path d="M549.50297364 176.06445312c-21.74414063 0-37.51171875 23.32617188-37.51171875 55.47656251s15.8203125 55.45898438 37.51171875 55.45898437S586.99711425 263.67382812 586.99711425 231.54101562s-15.8203125-55.4765625-37.49414061-55.47656249z" fill="#FFFFFF" p-id="5222"></path><path d="M532.48734864 245.3046875a33.31054688 17.015625 90 1 0 34.03124999 0 33.31054688 17.015625 90 1 0-34.03125 0Z" p-id="5223"></path><path d="M437.00297364 176.06445312c-21.74414063 0-37.51171875 23.32617188-37.51171875 55.47656251s15.8203125 55.45898438 37.51171875 55.45898437S474.49711425 263.67382812 474.49711425 231.54101562s-15.8203125-55.4765625-37.49414062-55.47656249z" fill="#FFFFFF" p-id="5224"></path><path d="M420.33891114 244.65429687a32.64257813 16.6640625 90 1 0 33.328125 1e-8 32.64257813 16.6640625 90 1 0-33.32812501 0Z" p-id="5225"></path><path d="M496.92680175 249.875a18.59765625 18.59765625 0 0 0-3.67382811-0.36914063c-40.32421875 0-112.5 37.81054688-112.50000001 74.98828126 0 35.15625 70.91015625 75.00585938 93.74414062 75.00585937 11.07421875 0 131.25585938-41.73046875 131.25585938-75.00585937 0-49.04296875-83.30273438-69.52148438-108.82617188-74.61914063z" fill="#FDB515" p-id="5226"></path></svg>